<svg id="svg" version="1.1" xmlns="http://www.w3.org/2000/svg" xmlns:xlink="http://www.w3.org/1999/xlink" width="400" height="400" viewBox="0, 0, 400,400"><g id="svgg"><path id="path0" d="M261.596 156.900 C 228.090 190.285,200.607 217.600,200.524 217.600 C 200.441 217.600,173.478 190.690,140.605 157.800 C 107.732 124.910,80.764 98.000,80.676 98.000 C 80.588 98.000,74.732 103.805,67.663 110.900 L 54.810 123.800 127.905 196.900 C 168.107 237.105,201.122 269.955,201.271 269.900 C 201.543 269.800,219.482 251.978,304.296 167.547 L 349.192 122.854 335.855 109.527 L 322.518 96.200 261.596 156.900 " stroke="none" fill="#fbfbfb" fill-rule="evenodd"></path><path id="path1" d="M277.887 140.262 C 253.514 164.596,233.632 184.565,233.704 184.637 C 233.775 184.709,253.806 164.795,278.216 140.384 C 302.627 115.973,322.509 96.004,322.399 96.008 C 322.290 96.013,302.259 115.927,277.887 140.262 M67.301 110.744 L 54.402 123.794 57.097 126.397 L 59.792 129.000 57.306 126.399 L 54.820 123.799 67.668 110.899 C 74.735 103.805,80.587 98.000,80.674 98.000 C 80.760 98.000,107.190 124.370,139.407 156.600 C 171.625 188.830,198.122 215.200,198.291 215.200 C 198.461 215.200,172.139 188.740,139.800 156.400 C 107.461 124.060,80.821 97.621,80.601 97.647 C 80.380 97.673,74.395 103.566,67.301 110.744 M335.385 109.185 C 340.433 114.237,344.632 118.301,344.716 118.217 C 344.914 118.020,326.900 100.000,326.505 100.000 C 326.341 100.000,330.337 104.133,335.385 109.185 M347.993 121.307 L 349.370 122.814 345.588 126.707 L 341.805 130.600 345.798 126.702 L 349.791 122.804 348.203 121.302 L 346.615 119.800 347.993 121.307 M332.196 139.604 C 331.566 140.262,331.182 140.800,331.343 140.800 C 331.756 140.800,333.722 138.788,333.513 138.580 C 333.419 138.486,332.826 138.946,332.196 139.604 M289.694 182.067 C 267.195 204.536,248.837 222.970,248.898 223.031 C 248.959 223.092,267.483 204.705,290.062 182.171 C 312.642 159.637,331.000 141.203,330.858 141.207 C 330.716 141.211,312.192 159.598,289.694 182.067 M230.860 187.042 C 230.562 187.378,230.399 187.732,230.495 187.829 C 230.592 187.926,230.998 187.644,231.398 187.202 C 231.797 186.761,231.961 186.407,231.762 186.415 C 231.563 186.424,231.157 186.705,230.860 187.042 M211.196 206.700 L 203.000 215.000 211.300 206.804 C 215.865 202.296,219.600 198.561,219.600 198.504 C 219.600 198.219,218.812 198.988,211.196 206.700 M199.254 216.557 C 200.147 217.517,200.423 217.618,201.054 217.215 C 201.775 216.755,201.775 216.748,201.038 216.981 C 200.555 217.134,199.895 216.893,199.238 216.323 L 198.200 215.423 199.254 216.557 M221.104 250.295 L 201.210 270.189 198.105 267.198 L 195.000 264.207 198.101 267.402 L 201.203 270.596 221.301 250.498 C 232.355 239.444,241.309 230.400,241.199 230.400 C 241.089 230.400,232.046 239.353,221.104 250.295 " stroke="none" fill="#9d9d9d" fill-rule="evenodd"></path><path id="path2" d="M319.600 87.200 C 319.600 87.420,319.060 87.600,318.400 87.600 C 317.740 87.600,317.200 87.780,317.200 88.000 C 317.200 88.220,316.880 88.400,316.488 88.400 C 316.097 88.400,315.517 88.760,315.200 89.200 C 314.883 89.640,314.392 90.000,314.110 90.000 C 313.828 90.000,294.878 108.720,272.000 131.600 C 249.122 154.480,230.132 173.200,229.801 173.200 C 229.467 173.200,229.200 173.555,229.200 174.000 C 229.200 174.533,228.933 174.800,228.400 174.800 C 227.867 174.800,227.600 175.067,227.600 175.600 C 227.600 176.133,227.333 176.400,226.800 176.400 C 226.267 176.400,226.000 176.667,226.000 177.200 C 226.000 177.733,225.733 178.000,225.200 178.000 C 224.667 178.000,224.400 178.267,224.400 178.800 C 224.400 179.333,224.133 179.600,223.600 179.600 C 223.067 179.600,222.800 179.867,222.800 180.400 C 222.800 180.933,222.533 181.200,222.000 181.200 C 221.467 181.200,221.200 181.467,221.200 182.000 C 221.200 182.448,220.933 182.800,220.594 182.800 C 220.260 182.800,215.853 186.940,210.800 192.000 C 201.995 200.817,199.600 202.699,199.600 200.800 C 199.600 200.580,199.330 200.400,198.999 200.400 C 198.668 200.400,173.919 175.920,144.000 146.000 C 114.081 116.080,89.371 91.600,89.089 91.600 C 88.807 91.600,88.317 91.240,88.000 90.800 C 87.683 90.360,87.103 90.000,86.712 90.000 C 86.320 90.000,86.000 89.820,86.000 89.600 C 86.000 89.380,85.460 89.200,84.800 89.200 C 84.140 89.200,83.600 89.020,83.600 88.800 C 83.600 88.571,82.400 88.400,80.800 88.400 C 79.200 88.400,78.000 88.571,78.000 88.800 C 78.000 89.020,77.460 89.200,76.800 89.200 C 76.140 89.200,75.600 89.380,75.600 89.600 C 75.600 89.820,75.240 90.000,74.800 90.000 C 74.360 90.000,74.000 90.180,74.000 90.400 C 74.000 90.620,73.729 90.800,73.398 90.800 C 72.669 90.800,49.200 114.183,49.200 114.910 C 49.200 115.192,48.840 115.683,48.400 116.000 C 47.930 116.339,47.600 117.035,47.600 117.688 C 47.600 118.300,47.420 118.800,47.200 118.800 C 46.960 118.800,46.800 120.400,46.800 122.800 C 46.800 125.200,46.960 126.800,47.200 126.800 C 47.420 126.800,47.600 127.300,47.600 127.912 C 47.600 128.565,47.930 129.261,48.400 129.600 C 48.840 129.917,49.200 130.407,49.200 130.689 C 49.200 131.358,192.642 274.800,193.311 274.800 C 193.593 274.800,194.083 275.160,194.400 275.600 C 194.717 276.040,195.297 276.400,195.688 276.400 C 196.080 276.400,196.400 276.580,196.400 276.800 C 196.400 277.020,197.120 277.200,198.000 277.200 C 198.880 277.200,199.600 277.380,199.600 277.600 C 199.600 277.820,200.320 278.000,201.200 278.000 C 202.080 278.000,202.800 277.820,202.800 277.600 C 202.800 277.380,203.520 277.200,204.400 277.200 C 205.280 277.200,206.000 277.020,206.000 276.800 C 206.000 276.580,206.360 276.400,206.800 276.400 C 207.240 276.400,207.600 276.220,207.600 276.000 C 207.600 275.780,207.882 275.600,208.226 275.600 C 208.570 275.600,209.729 274.700,210.800 273.600 C 211.871 272.500,213.030 271.600,213.374 271.600 C 213.733 271.600,214.000 271.259,214.000 270.800 C 214.000 270.267,214.267 270.000,214.800 270.000 C 215.333 270.000,215.600 269.733,215.600 269.200 C 215.600 268.667,215.867 268.400,216.400 268.400 C 216.933 268.400,217.200 268.133,217.200 267.600 C 217.200 267.155,217.467 266.800,217.800 266.800 C 218.585 266.800,355.600 129.785,355.600 129.000 C 355.600 128.670,355.780 128.400,356.000 128.400 C 356.220 128.400,356.400 128.040,356.400 127.600 C 356.400 127.160,356.580 126.800,356.800 126.800 C 357.020 126.800,357.200 126.080,357.200 125.200 C 357.200 124.320,357.380 123.600,357.600 123.600 C 357.820 123.600,358.000 122.880,358.000 122.000 C 358.000 121.120,357.820 120.400,357.600 120.400 C 357.380 120.400,357.200 119.680,357.200 118.800 C 357.200 117.920,357.020 117.200,356.800 117.200 C 356.580 117.200,356.400 116.840,356.400 116.400 C 356.400 115.960,356.220 115.600,356.000 115.600 C 355.780 115.600,355.600 115.329,355.600 114.998 C 355.600 114.668,349.931 108.728,343.002 101.798 C 336.072 94.869,330.132 89.200,329.802 89.200 C 329.471 89.200,329.200 89.020,329.200 88.800 C 329.200 88.580,328.840 88.400,328.400 88.400 C 327.960 88.400,327.600 88.220,327.600 88.000 C 327.600 87.780,327.060 87.600,326.400 87.600 C 325.740 87.600,325.200 87.420,325.200 87.200 C 325.200 86.971,324.000 86.800,322.400 86.800 C 320.800 86.800,319.600 86.971,319.600 87.200 M336.602 109.231 L 350.200 122.861 313.715 159.131 C 220.926 251.372,201.542 270.607,201.280 270.700 C 201.126 270.755,167.915 237.715,127.478 197.278 L 53.957 123.756 67.078 110.471 C 74.295 103.164,80.380 97.189,80.600 97.193 C 80.819 97.197,107.909 124.101,140.800 156.980 L 200.600 216.761 261.200 156.266 C 294.530 122.993,322.071 95.732,322.402 95.685 C 322.733 95.638,329.123 101.734,336.602 109.231 " stroke="none" fill="#040404" fill-rule="evenodd"></path><path id="path3" d="M74.981 102.900 L 73.400 104.600 75.100 103.019 C 76.035 102.149,76.800 101.384,76.800 101.319 C 76.800 101.016,76.452 101.319,74.981 102.900 M312.992 159.300 L 309.000 163.400 313.100 159.408 C 315.355 157.212,317.200 155.367,317.200 155.308 C 317.200 155.018,316.701 155.492,312.992 159.300 M199.288 216.213 C 199.886 216.843,200.447 217.277,200.535 217.179 C 200.623 217.080,200.133 216.565,199.447 216.034 L 198.200 215.069 199.288 216.213 M241.196 230.700 L 233.800 238.200 241.300 230.804 C 245.425 226.736,248.800 223.361,248.800 223.304 C 248.800 223.019,248.068 223.732,241.196 230.700 " stroke="none" fill="#8c8c8c" fill-rule="evenodd"></path><path id="path4" d="M322.220 95.872 C 322.670 95.961,329.059 102.057,336.418 109.418 L 349.796 122.801 330.999 141.700 L 312.201 160.600 331.199 141.701 L 350.197 122.802 336.601 109.201 C 327.168 99.765,322.759 95.617,322.202 95.654 C 321.419 95.708,321.419 95.713,322.220 95.872 M72.800 104.600 C 68.734 108.670,65.554 112.000,65.732 112.000 C 65.910 112.000,69.225 108.760,73.099 104.800 C 76.972 100.840,80.335 97.600,80.570 97.600 C 80.806 97.600,107.909 124.465,140.799 157.300 L 200.600 217.000 140.801 157.100 C 107.911 124.155,80.819 97.200,80.596 97.200 C 80.374 97.200,76.866 100.530,72.800 104.600 M303.598 114.300 L 286.600 131.400 303.700 114.402 C 319.594 98.603,320.980 97.200,320.698 97.200 C 320.642 97.200,312.947 104.895,303.598 114.300 M60.388 117.500 L 57.800 120.200 60.500 117.612 C 61.985 116.188,63.200 114.973,63.200 114.912 C 63.200 114.617,62.793 114.992,60.388 117.500 M55.190 122.211 L 53.822 123.621 127.411 197.211 C 167.885 237.685,201.122 270.755,201.272 270.700 C 201.742 270.527,234.000 238.380,234.000 238.084 C 234.000 237.930,226.620 245.182,217.599 254.201 L 201.198 270.598 127.710 197.110 L 54.222 123.622 55.589 122.211 C 56.342 121.435,56.867 120.800,56.757 120.800 C 56.647 120.800,55.942 121.435,55.190 122.211 M228.183 189.300 C 213.012 204.517,200.722 216.885,200.872 216.784 C 201.553 216.324,256.001 161.868,255.890 161.757 C 255.822 161.688,243.353 174.083,228.183 189.300 M308.478 164.000 C 307.313 165.100,306.510 166.000,306.695 166.000 C 306.879 166.000,307.917 165.100,309.000 164.000 C 310.083 162.900,310.886 162.000,310.784 162.000 C 310.681 162.000,309.644 162.900,308.478 164.000 M267.999 204.300 L 238.200 234.200 268.100 204.401 C 295.895 176.700,298.179 174.400,297.899 174.400 C 297.843 174.400,284.388 187.855,267.999 204.300 " stroke="none" fill="#7c7c7c" fill-rule="evenodd"></path></g></svg>