<svg id="svg" version="1.1" xmlns="http://www.w3.org/2000/svg" xmlns:xlink="http://www.w3.org/1999/xlink" width="400" height="400" viewBox="0, 0, 400,400"><g id="svgg"><path id="path0" d="M16.200 0.289 C 15.540 0.384,14.829 0.628,14.620 0.831 C 14.411 1.034,13.916 1.200,13.520 1.200 C 13.124 1.200,12.800 1.336,12.800 1.502 C 12.800 1.669,12.215 2.062,11.500 2.375 C 10.785 2.689,9.750 3.408,9.200 3.973 C 8.650 4.538,7.725 5.245,7.144 5.544 C 6.563 5.843,5.843 6.563,5.544 7.144 C 5.245 7.725,4.538 8.650,3.973 9.200 C 3.408 9.750,2.689 10.785,2.375 11.500 C 2.062 12.215,1.669 12.800,1.502 12.800 C 1.336 12.800,1.200 13.124,1.200 13.520 C 1.200 13.916,0.975 14.465,0.700 14.740 C -0.036 15.476,-0.036 384.524,0.700 385.260 C 0.975 385.535,1.200 386.084,1.200 386.480 C 1.200 386.876,1.380 387.200,1.600 387.200 C 1.820 387.200,2.000 387.560,2.000 388.000 C 2.000 388.440,2.180 388.800,2.400 388.800 C 2.620 388.800,2.800 389.070,2.800 389.400 C 2.800 389.730,2.980 390.000,3.200 390.000 C 3.420 390.000,3.600 390.258,3.600 390.573 C 3.600 390.888,3.960 391.260,4.400 391.400 C 4.840 391.540,5.200 391.867,5.200 392.127 C 5.201 392.793,6.992 394.800,7.586 394.800 C 7.857 394.800,8.556 395.307,9.140 395.927 C 9.723 396.547,10.785 397.311,11.500 397.625 C 12.215 397.938,12.800 398.331,12.800 398.498 C 12.800 398.664,13.124 398.800,13.520 398.800 C 13.916 398.800,14.465 399.025,14.740 399.300 C 15.138 399.698,45.845 399.800,165.600 399.800 C 285.355 399.800,316.062 399.698,316.460 399.300 C 316.735 399.025,317.284 398.800,317.680 398.800 C 318.076 398.800,318.400 398.620,318.400 398.400 C 318.400 398.180,318.760 398.000,319.200 398.000 C 319.640 398.000,320.000 397.820,320.000 397.600 C 320.000 397.380,320.243 397.200,320.541 397.200 C 320.838 397.200,321.646 396.660,322.337 396.000 C 323.028 395.340,323.693 394.800,323.815 394.800 C 324.292 394.800,326.000 392.803,326.000 392.245 C 326.000 391.920,326.349 391.543,326.775 391.408 C 327.201 391.273,327.785 390.631,328.073 389.981 C 328.360 389.331,328.731 388.800,328.898 388.800 C 329.064 388.800,329.200 388.440,329.200 388.000 C 329.200 387.560,329.380 387.200,329.600 387.200 C 329.820 387.200,330.000 386.840,330.000 386.400 C 330.000 385.960,330.180 385.600,330.400 385.600 C 330.620 385.600,330.800 385.071,330.800 384.424 C 330.800 383.777,330.980 383.136,331.200 383.000 C 331.753 382.658,331.753 315.200,331.200 315.200 C 330.980 315.200,330.800 314.975,330.800 314.700 C 330.797 312.603,324.841 309.505,323.626 310.969 C 323.366 311.282,322.420 311.662,321.522 311.813 C 319.128 312.218,316.735 314.737,316.091 317.531 C 315.727 319.111,315.600 327.250,315.600 349.046 C 315.600 381.439,315.713 379.914,313.139 382.253 C 310.569 384.589,323.251 384.413,165.251 384.302 L 20.869 384.200 19.165 383.000 C 18.228 382.340,17.043 381.007,16.531 380.037 L 15.600 378.274 15.600 200.000 L 15.600 21.726 16.531 19.963 C 17.043 18.993,18.228 17.660,19.165 17.000 L 20.869 15.800 165.600 15.800 L 310.331 15.800 312.046 17.006 C 315.705 19.577,315.373 15.060,315.600 65.400 L 315.800 109.800 316.715 111.657 C 317.654 113.563,320.134 115.600,321.515 115.600 C 321.918 115.600,322.596 115.864,323.024 116.187 C 323.900 116.850,326.800 117.014,326.800 116.400 C 326.800 116.180,327.076 116.000,327.413 116.000 C 328.209 116.000,330.800 113.409,330.800 112.613 C 330.800 112.276,330.980 112.000,331.200 112.000 C 331.754 112.000,331.754 17.742,331.200 17.400 C 330.980 17.264,330.800 16.634,330.800 16.000 C 330.800 15.366,330.620 14.736,330.400 14.600 C 330.180 14.464,330.000 14.003,330.000 13.576 C 330.000 13.149,329.864 12.800,329.698 12.800 C 329.531 12.800,329.138 12.215,328.825 11.500 C 328.511 10.785,327.747 9.723,327.127 9.140 C 326.507 8.556,326.000 7.873,326.000 7.621 C 326.000 7.162,324.230 5.200,323.815 5.200 C 323.693 5.200,323.028 4.660,322.337 4.000 C 321.646 3.340,320.838 2.800,320.541 2.800 C 320.243 2.800,320.000 2.620,320.000 2.400 C 320.000 2.180,319.640 2.000,319.200 2.000 C 318.760 2.000,318.400 1.820,318.400 1.600 C 318.400 1.380,318.076 1.200,317.680 1.200 C 317.284 1.200,316.735 0.975,316.460 0.700 C 315.978 0.218,19.518 -0.188,16.200 0.289 M156.200 43.031 C 146.684 44.309,134.862 48.505,128.528 52.852 C 127.608 53.484,126.732 54.000,126.580 54.000 C 126.428 54.000,124.609 55.291,122.538 56.868 C 97.770 75.731,87.950 107.645,97.829 137.170 C 99.203 141.276,103.052 149.670,103.682 149.933 C 103.857 150.007,104.000 150.242,104.000 150.455 C 104.000 151.057,107.055 155.458,109.931 159.000 C 127.825 181.038,155.263 190.232,183.200 183.552 C 185.070 183.105,186.960 182.582,187.400 182.390 C 187.840 182.198,189.075 181.756,190.145 181.410 C 223.848 170.481,245.268 129.023,234.791 95.000 C 234.588 94.340,233.950 92.450,233.373 90.800 C 232.796 89.150,232.223 87.460,232.100 87.043 C 231.646 85.505,227.105 76.965,225.483 74.600 C 221.264 68.447,213.726 60.319,209.600 57.474 C 208.610 56.792,207.493 55.950,207.118 55.603 C 197.506 46.731,173.249 40.742,156.200 43.031 M174.400 58.581 C 191.083 61.363,205.172 70.916,213.984 85.423 C 214.873 86.885,215.600 88.145,215.600 88.223 C 215.600 88.301,216.121 89.497,216.757 90.882 C 220.806 99.698,222.482 109.098,221.611 118.119 C 221.185 122.531,219.119 132.405,218.414 133.400 C 218.258 133.620,217.707 134.880,217.190 136.200 C 216.673 137.520,215.878 139.237,215.425 140.016 C 210.742 148.059,211.227 147.783,208.256 144.100 C 203.485 138.185,197.281 132.979,191.454 130.000 C 188.111 128.291,188.024 128.100,189.494 125.708 C 194.824 117.037,195.217 101.861,190.351 92.617 C 181.316 75.455,156.728 72.890,144.256 87.810 C 136.067 97.608,135.115 114.901,142.143 126.218 C 143.347 128.157,143.304 128.233,140.000 129.956 C 133.769 133.206,127.159 138.728,123.000 144.159 C 121.900 145.595,120.784 146.777,120.519 146.785 C 119.883 146.805,116.573 141.673,115.110 138.400 C 114.470 136.970,113.621 135.080,113.222 134.200 C 110.279 127.710,108.791 113.790,110.143 105.400 C 114.147 80.547,132.916 62.366,158.800 58.267 C 161.342 57.865,171.308 58.065,174.400 58.581 M170.800 94.540 C 180.293 98.911,181.199 116.038,172.231 121.581 C 162.864 127.370,153.200 120.780,153.200 108.604 C 153.200 96.791,161.421 90.222,170.800 94.540 M363.800 96.800 C 363.664 97.020,362.573 97.200,361.376 97.200 C 360.179 97.200,359.200 97.380,359.200 97.600 C 359.200 97.820,358.671 98.000,358.024 98.000 C 357.377 98.000,356.736 98.180,356.600 98.400 C 356.464 98.620,355.913 98.800,355.376 98.800 C 354.839 98.800,354.400 98.980,354.400 99.200 C 354.400 99.420,353.995 99.604,353.500 99.609 C 353.005 99.614,352.150 99.970,351.600 100.400 C 351.050 100.830,350.375 101.186,350.100 101.191 C 349.825 101.196,349.600 101.380,349.600 101.600 C 349.600 101.820,349.364 102.000,349.075 102.000 C 348.787 102.000,348.164 102.360,347.692 102.800 C 347.220 103.240,346.723 103.600,346.588 103.600 C 346.177 103.600,341.200 108.741,341.200 109.166 C 341.200 109.385,340.795 109.990,340.300 110.512 C 339.015 111.866,338.282 112.853,337.632 114.106 C 337.320 114.708,336.915 115.200,336.732 115.200 C 336.550 115.200,336.400 115.560,336.400 116.000 C 336.400 116.440,336.220 116.800,336.000 116.800 C 335.780 116.800,335.600 117.078,335.600 117.417 C 335.600 117.756,335.240 118.420,334.800 118.892 C 334.360 119.364,334.000 119.987,334.000 120.275 C 334.000 120.564,333.820 120.800,333.600 120.800 C 333.380 120.800,333.200 121.160,333.200 121.600 C 333.200 122.040,333.020 122.400,332.800 122.400 C 332.580 122.400,332.400 122.678,332.400 123.017 C 332.400 123.356,332.040 124.020,331.600 124.492 C 331.160 124.964,330.800 125.587,330.800 125.875 C 330.800 126.164,330.664 126.400,330.498 126.400 C 330.331 126.400,329.941 126.985,329.631 127.700 C 329.320 128.415,328.646 129.627,328.133 130.393 C 327.620 131.159,327.200 132.021,327.200 132.310 C 327.200 132.598,326.840 133.220,326.400 133.692 C 325.960 134.164,325.600 134.787,325.600 135.075 C 325.600 135.364,325.420 135.600,325.200 135.600 C 324.980 135.600,324.800 135.960,324.800 136.400 C 324.800 136.840,324.636 137.200,324.435 137.200 C 324.234 137.200,323.943 137.952,323.788 138.872 C 323.632 139.792,323.167 141.142,322.753 141.872 C 321.762 143.620,310.786 162.646,306.353 170.300 C 305.939 171.015,305.240 172.230,304.800 173.000 C 303.546 175.195,302.880 176.347,296.600 187.200 C 290.320 198.053,289.654 199.205,288.400 201.400 C 286.903 204.020,286.107 205.397,280.999 214.200 C 278.191 219.040,275.352 223.990,274.689 225.200 C 274.027 226.410,273.350 227.580,273.185 227.800 C 273.020 228.020,272.506 228.875,272.043 229.700 C 270.915 231.707,270.094 233.130,267.600 237.400 C 266.443 239.380,265.088 241.720,264.588 242.600 C 264.088 243.480,262.378 246.450,260.787 249.200 C 259.197 251.950,257.353 255.190,256.690 256.400 C 256.027 257.610,255.350 258.780,255.185 259.000 C 255.020 259.220,254.527 260.030,254.089 260.800 C 253.652 261.570,250.330 267.352,246.707 273.648 C 239.788 285.674,239.781 285.691,239.153 291.400 C 238.935 293.380,238.582 296.530,238.368 298.400 C 238.154 300.270,237.803 303.420,237.587 305.400 C 237.372 307.380,237.032 310.440,236.832 312.200 C 236.632 313.960,236.274 317.200,236.036 319.400 C 235.799 321.600,235.418 325.020,235.189 327.000 C 234.961 328.980,234.589 332.220,234.364 334.200 C 234.138 336.180,233.787 339.240,233.583 341.000 C 232.338 351.750,232.716 354.074,236.073 356.295 C 239.427 358.516,242.565 357.963,247.591 354.266 C 248.806 353.373,253.220 350.108,257.400 347.012 C 261.580 343.915,266.710 340.137,268.800 338.616 C 270.890 337.094,274.220 334.650,276.200 333.184 C 278.180 331.717,283.040 328.130,287.000 325.212 C 294.610 319.604,296.917 317.628,297.755 316.000 C 298.038 315.450,298.636 314.370,299.083 313.600 C 300.107 311.840,311.441 292.255,312.451 290.500 C 312.863 289.785,313.560 288.570,314.000 287.800 C 315.977 284.340,316.348 283.695,317.335 282.000 C 317.911 281.010,319.422 278.366,320.691 276.125 C 322.459 273.005,323.181 272.067,323.774 272.125 C 324.331 272.179,324.656 271.835,324.932 270.900 C 325.143 270.185,325.470 269.600,325.658 269.600 C 325.846 269.600,326.000 269.330,326.000 269.000 C 326.000 268.670,326.180 268.400,326.400 268.400 C 326.620 268.400,326.800 268.040,326.800 267.600 C 326.800 267.160,326.980 266.800,327.200 266.800 C 327.420 266.800,327.600 266.522,327.600 266.183 C 327.600 265.844,327.960 265.180,328.400 264.708 C 328.840 264.236,329.200 263.613,329.200 263.325 C 329.200 263.036,329.380 262.800,329.600 262.800 C 329.820 262.800,330.000 262.440,330.000 262.000 C 330.000 261.560,330.180 261.200,330.400 261.200 C 330.620 261.200,330.800 260.906,330.800 260.547 C 330.800 260.188,331.129 259.603,331.530 259.247 C 331.932 258.891,332.516 258.015,332.828 257.300 C 333.140 256.585,333.531 256.000,333.698 256.000 C 333.864 256.000,334.000 255.722,334.000 255.383 C 334.000 255.044,334.360 254.380,334.800 253.908 C 335.240 253.436,335.600 252.813,335.600 252.525 C 335.600 252.236,335.780 252.000,336.000 252.000 C 336.220 252.000,336.400 251.655,336.400 251.233 C 336.400 250.812,336.535 250.407,336.700 250.333 C 337.076 250.166,338.375 248.036,338.671 247.100 C 338.793 246.715,339.052 246.400,339.247 246.400 C 339.441 246.400,339.600 246.040,339.600 245.600 C 339.600 245.160,339.762 244.800,339.960 244.800 C 340.159 244.800,340.654 243.991,341.060 243.001 C 341.467 242.012,341.935 241.202,342.100 241.201 C 342.265 241.201,342.400 240.922,342.400 240.583 C 342.400 240.244,342.760 239.580,343.200 239.108 C 343.640 238.636,344.000 238.013,344.000 237.725 C 344.000 237.436,344.180 237.200,344.400 237.200 C 344.620 237.200,344.800 236.840,344.800 236.400 C 344.800 235.960,344.980 235.600,345.200 235.600 C 345.420 235.600,345.600 235.364,345.600 235.075 C 345.600 234.787,345.960 234.164,346.400 233.692 C 346.840 233.220,347.200 232.556,347.200 232.217 C 347.200 231.878,347.380 231.600,347.600 231.600 C 347.820 231.600,348.000 231.322,348.000 230.983 C 348.000 230.644,348.360 229.980,348.800 229.508 C 349.240 229.036,349.600 228.413,349.600 228.125 C 349.600 227.836,349.780 227.600,350.000 227.600 C 350.220 227.600,350.400 227.240,350.400 226.800 C 350.400 226.360,350.580 226.000,350.800 226.000 C 351.020 226.000,351.200 225.745,351.200 225.433 C 351.200 225.122,351.335 224.807,351.500 224.733 C 351.876 224.566,353.175 222.436,353.471 221.500 C 353.593 221.115,353.852 220.800,354.047 220.800 C 354.241 220.800,354.400 220.440,354.400 220.000 C 354.400 219.560,354.552 219.200,354.737 219.200 C 354.923 219.200,355.505 218.345,356.032 217.300 C 356.558 216.255,357.082 215.310,357.195 215.200 C 357.708 214.700,358.800 212.413,358.800 211.838 C 358.800 211.487,358.980 211.200,359.200 211.200 C 359.420 211.200,359.600 210.906,359.600 210.547 C 359.600 210.188,359.929 209.603,360.330 209.247 C 360.732 208.891,361.316 208.015,361.628 207.300 C 361.940 206.585,362.331 206.000,362.498 206.000 C 362.664 206.000,362.800 205.722,362.800 205.383 C 362.800 205.044,363.160 204.380,363.600 203.908 C 364.040 203.436,364.400 202.813,364.400 202.525 C 364.400 202.236,364.580 202.000,364.800 202.000 C 365.020 202.000,365.200 201.640,365.200 201.200 C 365.200 200.760,365.380 200.400,365.600 200.400 C 365.820 200.400,366.000 200.080,366.000 199.688 C 366.000 199.297,366.360 198.717,366.800 198.400 C 367.240 198.083,367.600 197.503,367.600 197.112 C 367.600 196.720,367.780 196.400,368.000 196.400 C 368.220 196.400,368.400 196.040,368.400 195.600 C 368.400 195.160,368.580 194.800,368.800 194.800 C 369.020 194.800,369.200 194.564,369.200 194.275 C 369.200 193.987,369.515 193.402,369.900 192.975 C 370.285 192.549,370.870 191.660,371.199 191.000 C 371.529 190.340,371.889 189.710,371.999 189.600 C 372.376 189.224,374.438 185.402,374.859 184.300 C 375.089 183.695,375.441 183.200,375.639 183.200 C 375.838 183.200,376.000 182.840,376.000 182.400 C 376.000 181.960,376.180 181.600,376.400 181.600 C 376.620 181.600,376.800 181.240,376.800 180.800 C 376.800 180.360,376.980 180.000,377.200 180.000 C 377.420 180.000,377.600 179.764,377.600 179.475 C 377.600 179.187,377.960 178.564,378.400 178.092 C 378.840 177.620,379.200 176.956,379.200 176.617 C 379.200 176.278,379.380 176.000,379.600 176.000 C 379.820 176.000,380.000 175.745,380.000 175.433 C 380.000 175.122,380.135 174.807,380.300 174.733 C 380.676 174.566,381.975 172.436,382.271 171.500 C 382.393 171.115,382.652 170.800,382.847 170.800 C 383.041 170.800,383.200 170.522,383.200 170.183 C 383.200 169.844,383.560 169.180,384.000 168.708 C 384.440 168.236,384.800 167.613,384.800 167.325 C 384.800 167.036,384.980 166.800,385.200 166.800 C 385.420 166.800,385.600 166.440,385.600 166.000 C 385.600 165.560,385.780 165.200,386.000 165.200 C 386.220 165.200,386.400 164.922,386.400 164.583 C 386.400 164.244,386.760 163.580,387.200 163.108 C 387.640 162.636,388.000 162.013,388.000 161.725 C 388.000 161.436,388.180 161.200,388.400 161.200 C 388.620 161.200,388.800 160.840,388.800 160.400 C 388.800 159.960,388.980 159.600,389.200 159.600 C 389.420 159.600,389.600 159.410,389.600 159.179 C 389.600 158.947,390.050 158.095,390.600 157.286 C 391.150 156.477,391.600 155.496,391.600 155.107 C 391.600 154.718,391.780 154.400,392.000 154.400 C 392.220 154.400,392.400 154.130,392.400 153.800 C 392.400 153.470,392.580 153.200,392.800 153.200 C 393.020 153.200,393.200 152.930,393.200 152.600 C 393.200 152.270,393.380 152.000,393.600 152.000 C 393.820 152.000,394.000 151.640,394.000 151.200 C 394.000 150.760,394.180 150.400,394.400 150.400 C 394.620 150.400,394.800 150.080,394.800 149.688 C 394.800 149.297,395.160 148.717,395.600 148.400 C 396.040 148.083,396.400 147.514,396.400 147.135 C 396.400 146.757,396.580 146.336,396.800 146.200 C 397.020 146.064,397.200 145.513,397.200 144.976 C 397.200 144.439,397.380 144.000,397.600 144.000 C 397.820 144.000,398.000 143.640,398.000 143.200 C 398.000 142.760,398.180 142.400,398.400 142.400 C 398.620 142.400,398.800 142.076,398.800 141.680 C 398.800 141.284,399.025 140.735,399.300 140.460 C 399.673 140.087,399.800 137.457,399.800 130.113 C 399.800 122.592,399.682 120.227,399.300 120.100 C 399.025 120.008,398.800 119.599,398.800 119.190 C 398.800 118.782,398.620 118.336,398.400 118.200 C 398.180 118.064,398.000 117.513,398.000 116.976 C 398.000 116.439,397.820 116.000,397.600 116.000 C 397.380 116.000,397.200 115.640,397.200 115.200 C 397.200 114.760,397.020 114.400,396.800 114.400 C 396.580 114.400,396.400 114.040,396.400 113.600 C 396.400 113.160,396.250 112.800,396.068 112.800 C 395.885 112.800,395.480 112.308,395.168 111.706 C 394.552 110.519,393.960 109.732,392.377 108.000 C 391.814 107.384,390.914 106.324,390.377 105.644 C 389.840 104.964,389.173 104.406,388.896 104.404 C 388.619 104.402,387.828 103.860,387.137 103.200 C 386.446 102.540,385.638 102.000,385.341 102.000 C 385.043 102.000,384.799 101.865,384.797 101.700 C 384.793 101.341,382.856 100.400,382.120 100.400 C 381.834 100.400,381.600 100.220,381.600 100.000 C 381.600 99.780,381.240 99.600,380.800 99.600 C 380.360 99.600,380.000 99.420,380.000 99.200 C 380.000 98.980,379.640 98.800,379.200 98.800 C 378.760 98.800,378.400 98.620,378.400 98.400 C 378.400 98.180,377.691 98.000,376.824 98.000 C 375.957 98.000,375.136 97.820,375.000 97.600 C 374.864 97.380,373.784 97.200,372.600 97.200 C 371.416 97.200,370.336 97.020,370.200 96.800 C 370.064 96.580,368.624 96.400,367.000 96.400 C 365.376 96.400,363.936 96.580,363.800 96.800 M372.414 114.036 C 382.501 117.347,387.105 128.180,382.535 137.853 C 381.404 140.248,374.769 151.572,374.343 151.835 C 374.135 151.964,373.534 151.787,373.008 151.442 C 372.482 151.097,371.455 150.477,370.726 150.064 C 369.996 149.651,368.654 148.883,367.743 148.357 C 366.831 147.830,361.611 144.821,356.143 141.668 C 343.356 134.297,344.520 135.251,345.719 133.133 C 351.936 122.152,353.590 119.520,355.181 118.074 C 360.161 113.546,366.441 112.075,372.414 114.036 M172.874 139.808 C 183.192 141.953,191.547 147.285,197.250 155.363 C 199.669 158.790,199.667 158.858,197.100 160.505 C 192.762 163.290,191.612 164.000,191.444 164.000 C 191.349 164.000,189.950 164.618,188.336 165.373 C 185.189 166.844,182.984 167.620,179.800 168.376 C 178.700 168.637,177.170 169.005,176.400 169.195 C 169.590 170.870,161.404 170.749,153.400 168.856 C 150.074 168.069,146.958 167.157,145.800 166.631 C 143.267 165.481,140.182 164.112,139.782 163.959 C 138.672 163.537,132.000 159.050,132.000 158.726 C 132.000 157.880,135.538 153.204,138.171 150.571 C 147.228 141.514,160.813 137.301,172.874 139.808 M338.923 149.743 C 339.845 150.262,341.230 151.050,342.000 151.494 C 342.770 151.939,348.425 155.198,354.568 158.739 C 360.710 162.279,365.907 165.347,366.118 165.558 C 366.361 165.801,365.588 167.517,363.996 170.270 C 362.619 172.651,360.147 176.940,358.502 179.800 C 356.857 182.660,355.171 185.585,354.755 186.300 C 354.340 187.015,353.663 188.185,353.251 188.900 C 352.839 189.615,349.126 196.050,345.000 203.200 C 336.395 218.113,336.254 218.356,335.256 220.100 C 330.471 228.455,323.702 240.113,322.951 241.291 C 322.428 242.112,322.000 242.869,322.000 242.974 C 322.000 243.079,321.435 244.118,320.744 245.282 C 320.053 246.447,319.177 247.940,318.796 248.600 C 315.330 254.607,304.548 273.260,303.998 274.200 C 302.040 277.548,293.917 291.656,291.245 296.349 C 289.570 299.291,287.978 301.785,287.707 301.890 C 287.294 302.049,284.498 300.580,277.247 296.396 C 276.671 296.063,274.490 294.818,272.400 293.629 C 270.310 292.439,268.150 291.164,267.600 290.794 C 267.050 290.424,265.610 289.576,264.400 288.909 C 260.090 286.533,258.405 285.532,258.224 285.239 C 258.072 284.994,260.385 280.775,265.646 271.700 C 266.061 270.985,266.760 269.770,267.200 269.000 C 267.640 268.230,268.339 267.015,268.753 266.300 C 269.167 265.585,272.521 259.780,276.205 253.400 C 279.890 247.020,283.218 241.260,283.602 240.600 C 284.358 239.300,297.225 217.031,298.452 214.900 C 299.867 212.441,300.719 210.963,308.200 198.000 C 312.326 190.850,316.016 184.460,316.399 183.800 C 317.988 181.067,331.655 157.402,332.744 155.500 C 335.598 150.515,336.705 148.800,337.072 148.800 C 337.168 148.800,338.001 149.225,338.923 149.743 M61.400 211.540 C 54.816 213.681,54.227 222.189,60.431 225.518 C 66.886 228.980,73.995 220.779,69.788 214.725 C 67.868 211.962,64.286 210.601,61.400 211.540 M93.754 211.965 C 88.994 214.127,87.915 220.315,91.646 224.046 C 94.098 226.498,91.461 226.396,152.400 226.396 C 213.272 226.396,210.709 226.494,213.126 224.070 C 217.036 220.148,215.370 213.075,210.200 211.646 C 206.987 210.759,95.739 211.063,93.754 211.965 M61.204 255.309 C 57.609 256.499,55.468 260.450,56.333 264.299 C 57.806 270.854,66.732 272.089,70.070 266.200 C 73.387 260.348,67.570 253.202,61.204 255.309 M94.648 255.293 C 87.368 257.220,87.883 267.905,95.351 269.902 C 98.034 270.620,206.157 270.626,209.269 269.909 C 216.925 268.145,217.418 257.569,209.950 255.335 C 207.709 254.665,97.174 254.625,94.648 255.293 M62.287 298.873 C 53.330 300.764,54.521 313.910,63.637 313.772 C 69.349 313.685,72.866 307.538,70.051 302.564 C 68.557 299.926,65.096 298.280,62.287 298.873 M95.022 298.972 C 87.635 301.256,87.558 311.684,94.914 313.537 C 97.752 314.251,207.549 314.183,209.950 313.465 C 217.418 311.231,216.925 300.655,209.269 298.891 C 206.199 298.183,97.322 298.260,95.022 298.972 M258.321 303.451 C 260.455 304.690,262.740 306.017,263.400 306.401 C 265.045 307.358,272.283 311.511,274.000 312.483 C 276.594 313.951,277.175 313.253,267.412 320.400 C 263.956 322.930,258.760 326.747,255.866 328.882 C 250.051 333.173,249.852 333.206,250.375 329.785 C 250.742 327.385,251.208 323.357,252.017 315.600 C 252.257 313.290,252.622 310.305,252.827 308.967 C 253.032 307.629,253.200 305.796,253.200 304.893 C 253.200 300.744,253.507 300.657,258.321 303.451 M163.000 342.997 C 156.902 345.138,156.593 354.129,162.525 356.822 C 164.529 357.732,207.036 358.028,210.200 357.154 C 216.914 355.299,216.859 344.698,210.126 342.828 C 207.621 342.133,165.028 342.285,163.000 342.997 " stroke="none" fill="#040404" fill-rule="evenodd"></path><path id="path1" d="M164.900 42.276 C 165.285 42.376,165.915 42.376,166.300 42.276 C 166.685 42.175,166.370 42.093,165.600 42.093 C 164.830 42.093,164.515 42.175,164.900 42.276 M158.800 58.267 C 132.916 62.366,114.147 80.547,110.143 105.400 C 108.791 113.790,110.279 127.710,113.222 134.200 C 113.621 135.080,114.470 136.970,115.110 138.400 C 116.573 141.673,119.883 146.805,120.519 146.785 C 120.784 146.777,121.900 145.595,123.000 144.159 C 127.159 138.728,133.769 133.206,140.000 129.956 C 143.304 128.233,143.347 128.157,142.143 126.218 C 135.115 114.901,136.067 97.608,144.256 87.810 C 156.728 72.890,181.316 75.455,190.351 92.617 C 195.217 101.861,194.824 117.037,189.494 125.708 C 188.024 128.100,188.111 128.291,191.454 130.000 C 197.281 132.979,203.485 138.185,208.256 144.100 C 211.227 147.783,210.742 148.059,215.425 140.016 C 215.878 139.237,216.673 137.520,217.190 136.200 C 217.707 134.880,218.258 133.620,218.414 133.400 C 219.119 132.405,221.185 122.531,221.611 118.119 C 222.482 109.098,220.806 99.698,216.757 90.882 C 216.121 89.497,215.600 88.301,215.600 88.223 C 215.600 87.775,212.016 82.301,209.968 79.622 C 198.390 64.472,176.723 55.429,158.800 58.267 M213.400 60.800 C 214.259 61.680,215.052 62.400,215.162 62.400 C 215.272 62.400,214.659 61.680,213.800 60.800 C 212.941 59.920,212.148 59.200,212.038 59.200 C 211.928 59.200,212.541 59.920,213.400 60.800 M163.400 93.591 C 159.418 94.315,154.000 98.781,154.000 101.340 C 154.000 101.551,154.687 100.661,155.527 99.362 C 158.857 94.213,165.485 92.293,170.769 94.947 C 171.908 95.519,172.742 95.830,172.625 95.640 C 171.763 94.246,166.377 93.050,163.400 93.591 M174.532 97.521 C 175.359 98.467,176.213 99.707,176.429 100.276 C 176.645 100.845,176.928 101.205,177.057 101.077 C 177.408 100.726,175.835 98.364,174.343 97.000 C 173.137 95.898,173.152 95.941,174.532 97.521 M177.234 102.200 C 177.222 102.640,177.387 103.270,177.600 103.600 C 178.114 104.395,178.114 103.396,177.600 102.200 L 177.256 101.400 177.234 102.200 M153.456 102.884 C 153.321 103.388,153.227 104.160,153.246 104.600 C 153.265 105.040,153.445 104.698,153.646 103.840 C 154.036 102.178,153.870 101.340,153.456 102.884 M178.134 108.400 C 178.134 110.050,178.205 110.725,178.291 109.900 C 178.378 109.075,178.378 107.725,178.291 106.900 C 178.205 106.075,178.134 106.750,178.134 108.400 M237.320 110.800 C 237.320 112.010,237.395 112.505,237.487 111.900 C 237.578 111.295,237.578 110.305,237.487 109.700 C 237.395 109.095,237.320 109.590,237.320 110.800 M93.734 114.000 C 93.734 115.650,93.805 116.325,93.891 115.500 C 93.978 114.675,93.978 113.325,93.891 112.500 C 93.805 111.675,93.734 112.350,93.734 114.000 M153.206 112.633 C 153.209 113.275,153.396 114.070,153.621 114.400 C 153.914 114.830,153.954 114.546,153.762 113.400 C 153.430 111.416,153.198 111.096,153.206 112.633 M177.429 113.829 C 177.281 114.415,177.238 114.972,177.332 115.066 C 177.427 115.160,177.624 114.758,177.771 114.171 C 177.919 113.585,177.962 113.028,177.868 112.934 C 177.773 112.840,177.576 113.242,177.429 113.829 M361.831 114.041 C 358.468 115.198,355.114 117.638,353.284 120.257 C 352.526 121.344,348.906 127.504,345.719 133.133 C 344.520 135.251,343.356 134.297,356.143 141.668 C 361.611 144.821,366.831 147.830,367.743 148.357 C 368.654 148.883,369.996 149.651,370.726 150.064 C 371.455 150.477,372.482 151.097,373.008 151.442 C 374.325 152.305,374.286 152.349,378.260 145.506 C 384.664 134.478,385.450 131.484,383.555 125.349 C 380.706 116.123,370.788 110.961,361.831 114.041 M154.600 116.800 C 154.941 117.460,155.311 118.000,155.421 118.000 C 155.531 118.000,155.341 117.460,155.000 116.800 C 154.659 116.140,154.289 115.600,154.179 115.600 C 154.069 115.600,154.259 116.140,154.600 116.800 M176.209 117.036 C 175.232 118.849,172.754 121.078,170.655 122.031 C 169.745 122.444,169.234 122.786,169.520 122.791 C 171.485 122.824,178.087 116.754,177.128 115.795 C 177.038 115.705,176.625 116.264,176.209 117.036 M237.314 117.400 C 237.317 118.500,237.395 118.903,237.487 118.295 C 237.579 117.686,237.577 116.786,237.482 116.295 C 237.387 115.803,237.311 116.300,237.314 117.400 M157.515 120.300 C 158.484 121.235,159.480 122.000,159.728 122.000 C 159.975 122.000,159.733 121.703,159.189 121.340 C 158.645 120.976,157.649 120.211,156.977 119.640 C 156.304 119.068,156.546 119.365,157.515 120.300 M94.093 120.800 C 94.093 121.570,94.175 121.885,94.276 121.500 C 94.376 121.115,94.376 120.485,94.276 120.100 C 94.175 119.715,94.093 120.030,94.093 120.800 M163.115 123.272 C 163.492 123.421,164.610 123.544,165.600 123.544 C 166.590 123.544,167.708 123.421,168.085 123.272 C 168.462 123.122,167.344 123.000,165.600 123.000 C 163.856 123.000,162.738 123.122,163.115 123.272 M336.349 149.500 C 335.856 150.129,335.869 150.146,336.474 149.672 C 336.993 149.267,337.363 149.249,338.074 149.594 C 338.958 150.024,338.965 150.016,338.224 149.422 C 337.238 148.633,337.022 148.642,336.349 149.500 M339.600 150.420 C 340.987 151.361,341.778 151.635,340.800 150.836 C 340.250 150.386,339.620 150.017,339.400 150.015 C 339.180 150.013,339.270 150.196,339.600 150.420 M335.000 151.600 C 334.659 152.260,334.469 152.800,334.579 152.800 C 334.689 152.800,335.059 152.260,335.400 151.600 C 335.741 150.940,335.931 150.400,335.821 150.400 C 335.711 150.400,335.341 150.940,335.000 151.600 M348.400 155.567 C 349.363 156.352,350.000 156.608,350.000 156.210 C 350.000 156.106,349.415 155.735,348.700 155.386 L 347.400 154.752 348.400 155.567 M331.814 157.035 C 331.441 157.604,331.205 158.138,331.289 158.222 C 331.373 158.307,331.758 157.841,332.144 157.188 C 333.006 155.728,332.748 155.609,331.814 157.035 M351.200 157.167 C 352.163 157.952,352.800 158.208,352.800 157.810 C 352.800 157.706,352.215 157.335,351.500 156.986 L 350.200 156.352 351.200 157.167 M354.000 158.764 C 354.550 159.214,355.180 159.583,355.400 159.585 C 355.828 159.588,355.105 159.034,353.800 158.360 C 353.269 158.085,353.336 158.221,354.000 158.764 M330.094 160.100 C 328.418 162.927,327.564 164.586,328.277 163.631 C 329.234 162.347,331.264 158.800,331.041 158.800 C 330.944 158.800,330.518 159.385,330.094 160.100 M356.800 160.364 C 357.350 160.814,357.980 161.183,358.200 161.185 C 358.628 161.188,357.905 160.634,356.600 159.960 C 356.069 159.685,356.136 159.821,356.800 160.364 M359.600 161.964 C 360.150 162.414,360.780 162.783,361.000 162.785 C 361.428 162.788,360.705 162.234,359.400 161.560 C 358.869 161.285,358.936 161.421,359.600 161.964 M361.600 162.980 C 361.600 163.097,362.590 163.752,363.800 164.435 C 366.301 165.846,366.195 165.662,365.390 167.220 C 365.054 167.869,364.869 168.400,364.979 168.400 C 365.633 168.400,366.443 165.874,365.936 165.414 C 365.187 164.733,361.600 162.720,361.600 162.980 M215.785 165.300 L 213.800 167.400 215.900 165.415 C 217.851 163.571,218.183 163.200,217.885 163.200 C 217.822 163.200,216.877 164.145,215.785 165.300 M326.653 166.100 L 325.933 167.400 326.758 166.400 C 327.489 165.513,327.814 164.800,327.486 164.800 C 327.424 164.800,327.049 165.385,326.653 166.100 M325.053 168.900 L 324.333 170.200 325.158 169.200 C 325.889 168.313,326.214 167.600,325.886 167.600 C 325.824 167.600,325.449 168.185,325.053 168.900 M363.814 169.835 C 363.441 170.404,363.227 170.961,363.339 171.072 C 363.450 171.183,363.829 170.718,364.181 170.037 C 364.959 168.533,364.744 168.415,363.814 169.835 M323.386 171.700 L 322.752 173.000 323.567 172.000 C 324.352 171.037,324.608 170.400,324.210 170.400 C 324.106 170.400,323.735 170.985,323.386 171.700 M362.214 172.635 C 361.841 173.204,361.627 173.761,361.739 173.872 C 361.850 173.983,362.229 173.518,362.581 172.837 C 363.359 171.333,363.144 171.215,362.214 172.635 M321.786 174.500 L 321.152 175.800 321.967 174.800 C 322.752 173.837,323.008 173.200,322.610 173.200 C 322.506 173.200,322.135 173.785,321.786 174.500 M320.200 177.200 C 319.859 177.860,319.669 178.400,319.779 178.400 C 319.889 178.400,320.259 177.860,320.600 177.200 C 320.941 176.540,321.131 176.000,321.021 176.000 C 320.911 176.000,320.541 176.540,320.200 177.200 M357.969 180.100 C 357.052 181.695,356.054 183.399,355.751 183.887 C 354.284 186.244,353.156 188.588,353.964 187.600 C 354.414 187.050,354.786 186.483,354.791 186.341 C 354.796 186.198,355.485 184.938,356.323 183.541 C 359.000 179.076,360.039 177.200,359.835 177.200 C 359.725 177.200,358.885 178.505,357.969 180.100 M318.600 180.000 C 318.259 180.660,318.069 181.200,318.179 181.200 C 318.289 181.200,318.659 180.660,319.000 180.000 C 319.341 179.340,319.531 178.800,319.421 178.800 C 319.311 178.800,318.941 179.340,318.600 180.000 M317.014 182.635 C 316.641 183.204,316.427 183.761,316.539 183.872 C 316.650 183.983,317.029 183.518,317.381 182.837 C 318.159 181.333,317.944 181.215,317.014 182.635 M315.294 185.700 C 313.618 188.527,312.764 190.186,313.477 189.231 C 314.434 187.947,316.464 184.400,316.241 184.400 C 316.144 184.400,315.718 184.985,315.294 185.700 M161.300 185.887 C 161.905 185.978,162.895 185.978,163.500 185.887 C 164.105 185.795,163.610 185.720,162.400 185.720 C 161.190 185.720,160.695 185.795,161.300 185.887 M168.105 185.887 C 168.714 185.979,169.614 185.977,170.105 185.882 C 170.597 185.787,170.100 185.711,169.000 185.714 C 167.900 185.717,167.497 185.795,168.105 185.887 M352.186 190.100 L 351.552 191.400 352.367 190.400 C 353.152 189.437,353.408 188.800,353.010 188.800 C 352.906 188.800,352.535 189.385,352.186 190.100 M311.823 191.712 C 311.419 192.421,310.739 193.585,310.312 194.300 C 309.884 195.015,309.631 195.600,309.748 195.600 C 310.030 195.600,312.874 190.740,312.696 190.562 C 312.620 190.487,312.227 191.004,311.823 191.712 M350.600 192.800 C 350.259 193.460,350.069 194.000,350.179 194.000 C 350.289 194.000,350.659 193.460,351.000 192.800 C 351.341 192.140,351.531 191.600,351.421 191.600 C 351.311 191.600,350.941 192.140,350.600 192.800 M308.653 197.300 L 307.933 198.600 308.758 197.600 C 309.489 196.713,309.814 196.000,309.486 196.000 C 309.424 196.000,309.049 196.585,308.653 197.300 M347.400 198.400 C 347.059 199.060,346.869 199.600,346.979 199.600 C 347.089 199.600,347.459 199.060,347.800 198.400 C 348.141 197.740,348.331 197.200,348.221 197.200 C 348.111 197.200,347.741 197.740,347.400 198.400 M306.986 200.100 L 306.352 201.400 307.167 200.400 C 307.952 199.437,308.208 198.800,307.810 198.800 C 307.706 198.800,307.335 199.385,306.986 200.100 M345.814 201.035 C 345.441 201.604,345.227 202.161,345.339 202.272 C 345.450 202.383,345.829 201.918,346.181 201.237 C 346.959 199.733,346.744 199.615,345.814 201.035 M305.386 202.900 L 304.752 204.200 305.567 203.200 C 306.352 202.237,306.608 201.600,306.210 201.600 C 306.106 201.600,305.735 202.185,305.386 202.900 M344.214 203.835 C 343.841 204.404,343.605 204.938,343.689 205.022 C 343.773 205.107,344.158 204.641,344.544 203.988 C 345.406 202.528,345.148 202.409,344.214 203.835 M303.800 205.600 C 303.459 206.260,303.269 206.800,303.379 206.800 C 303.489 206.800,303.859 206.260,304.200 205.600 C 304.541 204.940,304.731 204.400,304.621 204.400 C 304.511 204.400,304.141 204.940,303.800 205.600 M342.614 206.635 C 342.241 207.204,342.005 207.738,342.089 207.822 C 342.173 207.907,342.558 207.441,342.944 206.788 C 343.806 205.328,343.548 205.209,342.614 206.635 M339.965 211.300 C 339.046 212.895,337.943 214.785,337.514 215.500 C 337.086 216.215,336.831 216.800,336.950 216.800 C 337.068 216.800,337.916 215.495,338.835 213.900 C 339.754 212.305,340.857 210.415,341.286 209.700 C 341.714 208.985,341.969 208.400,341.850 208.400 C 341.732 208.400,340.884 209.705,339.965 211.300 M300.614 211.035 C 300.241 211.604,300.027 212.161,300.139 212.272 C 300.250 212.383,300.629 211.918,300.981 211.237 C 301.759 209.733,301.544 209.615,300.614 211.035 M124.131 211.100 C 139.713 211.158,165.093 211.158,180.531 211.100 C 195.969 211.042,183.220 210.995,152.200 210.995 C 121.180 210.995,108.549 211.042,124.131 211.100 M299.014 213.835 C 298.641 214.404,298.405 214.938,298.489 215.022 C 298.573 215.107,298.958 214.641,299.344 213.988 C 300.206 212.528,299.948 212.409,299.014 213.835 M297.294 216.900 C 295.618 219.727,294.764 221.386,295.477 220.431 C 296.434 219.147,298.464 215.600,298.241 215.600 C 298.144 215.600,297.718 216.185,297.294 216.900 M335.853 218.500 L 335.133 219.800 335.958 218.800 C 336.689 217.913,337.014 217.200,336.686 217.200 C 336.624 217.200,336.249 217.785,335.853 218.500 M334.186 221.300 L 333.552 222.600 334.367 221.600 C 335.152 220.637,335.408 220.000,335.010 220.000 C 334.906 220.000,334.535 220.585,334.186 221.300 M293.853 222.900 L 293.133 224.200 293.958 223.200 C 294.689 222.313,295.014 221.600,294.686 221.600 C 294.624 221.600,294.249 222.185,293.853 222.900 M332.600 224.000 C 332.259 224.660,332.069 225.200,332.179 225.200 C 332.289 225.200,332.659 224.660,333.000 224.000 C 333.341 223.340,333.531 222.800,333.421 222.800 C 333.311 222.800,332.941 223.340,332.600 224.000 M292.253 225.700 L 291.533 227.000 292.358 226.000 C 293.089 225.113,293.414 224.400,293.086 224.400 C 293.024 224.400,292.649 224.985,292.253 225.700 M124.500 226.700 C 139.845 226.758,164.955 226.758,180.300 226.700 C 195.645 226.642,183.090 226.594,152.400 226.594 C 121.710 226.594,109.155 226.642,124.500 226.700 M290.653 228.500 L 289.933 229.800 290.758 228.800 C 291.489 227.913,291.814 227.200,291.486 227.200 C 291.424 227.200,291.049 227.785,290.653 228.500 M329.414 229.435 C 329.041 230.004,328.827 230.561,328.939 230.672 C 329.050 230.783,329.429 230.318,329.781 229.637 C 330.559 228.133,330.344 228.015,329.414 229.435 M289.000 231.200 C 288.659 231.860,288.469 232.400,288.579 232.400 C 288.689 232.400,289.059 231.860,289.400 231.200 C 289.741 230.540,289.931 230.000,289.821 230.000 C 289.711 230.000,289.341 230.540,289.000 231.200 M327.814 232.235 C 327.441 232.804,327.205 233.338,327.289 233.422 C 327.373 233.507,327.758 233.041,328.144 232.388 C 329.006 230.928,328.748 230.809,327.814 232.235 M326.214 235.035 C 325.841 235.604,325.605 236.138,325.689 236.222 C 325.773 236.307,326.158 235.841,326.544 235.188 C 327.406 233.728,327.148 233.609,326.214 235.035 M285.800 236.800 C 285.459 237.460,285.269 238.000,285.379 238.000 C 285.489 238.000,285.859 237.460,286.200 236.800 C 286.541 236.140,286.731 235.600,286.621 235.600 C 286.511 235.600,286.141 236.140,285.800 236.800 M284.214 239.435 C 283.841 240.004,283.605 240.538,283.689 240.622 C 283.773 240.707,284.158 240.241,284.544 239.588 C 285.406 238.128,285.148 238.009,284.214 239.435 M323.353 240.100 C 321.976 242.436,321.886 242.635,322.587 241.800 C 323.400 240.832,324.100 239.600,323.838 239.600 C 323.733 239.600,323.515 239.825,323.353 240.100 M282.708 242.100 C 281.833 243.449,281.048 245.056,281.487 244.600 C 282.048 244.017,283.698 241.200,283.479 241.200 C 283.376 241.200,283.029 241.605,282.708 242.100 M321.352 243.518 C 319.822 246.017,318.756 248.000,318.943 248.000 C 319.223 248.000,322.078 243.144,321.902 242.968 C 321.829 242.896,321.582 243.143,321.352 243.518 M279.368 247.900 C 278.543 249.385,277.606 251.050,277.286 251.600 L 276.705 252.600 277.453 251.696 C 278.314 250.654,281.341 245.200,281.058 245.200 C 280.954 245.200,280.194 246.415,279.368 247.900 M317.786 249.700 L 317.152 251.000 317.967 250.000 C 318.752 249.037,319.008 248.400,318.610 248.400 C 318.506 248.400,318.135 248.985,317.786 249.700 M316.200 252.400 C 315.859 253.060,315.669 253.600,315.779 253.600 C 315.889 253.600,316.259 253.060,316.600 252.400 C 316.941 251.740,317.131 251.200,317.021 251.200 C 316.911 251.200,316.541 251.740,316.200 252.400 M275.853 254.100 L 275.133 255.400 275.958 254.400 C 276.689 253.513,277.014 252.800,276.686 252.800 C 276.624 252.800,276.249 253.385,275.853 254.100 M314.600 255.200 C 314.259 255.860,314.069 256.400,314.179 256.400 C 314.289 256.400,314.659 255.860,315.000 255.200 C 315.341 254.540,315.531 254.000,315.421 254.000 C 315.311 254.000,314.941 254.540,314.600 255.200 M274.253 256.900 L 273.533 258.200 274.358 257.200 C 275.089 256.313,275.414 255.600,275.086 255.600 C 275.024 255.600,274.649 256.185,274.253 256.900 M313.014 257.835 C 312.641 258.404,312.427 258.961,312.539 259.072 C 312.650 259.183,313.029 258.718,313.381 258.037 C 314.159 256.533,313.944 256.415,313.014 257.835 M272.600 259.600 C 272.259 260.260,272.069 260.800,272.179 260.800 C 272.289 260.800,272.659 260.260,273.000 259.600 C 273.341 258.940,273.531 258.400,273.421 258.400 C 273.311 258.400,272.941 258.940,272.600 259.600 M311.414 260.635 C 311.041 261.204,310.827 261.761,310.939 261.872 C 311.050 261.983,311.429 261.518,311.781 260.837 C 312.559 259.333,312.344 259.215,311.414 260.635 M309.814 263.435 C 309.441 264.004,309.205 264.538,309.289 264.622 C 309.373 264.707,309.758 264.241,310.144 263.588 C 311.006 262.128,310.748 262.009,309.814 263.435 M269.414 265.035 C 269.041 265.604,268.827 266.161,268.939 266.272 C 269.050 266.383,269.429 265.918,269.781 265.237 C 270.559 263.733,270.344 263.615,269.414 265.035 M308.214 266.235 C 307.841 266.804,307.605 267.338,307.689 267.422 C 307.773 267.507,308.158 267.041,308.544 266.388 C 309.406 264.928,309.148 264.809,308.214 266.235 M267.814 267.835 C 267.441 268.404,267.227 268.961,267.339 269.072 C 267.450 269.183,267.829 268.718,268.181 268.037 C 268.959 266.533,268.744 266.415,267.814 267.835 M306.494 269.300 C 304.818 272.127,303.964 273.786,304.677 272.831 C 305.634 271.547,307.664 268.000,307.441 268.000 C 307.344 268.000,306.918 268.585,306.494 269.300 M266.214 270.635 C 265.841 271.204,265.605 271.738,265.689 271.822 C 265.773 271.907,266.158 271.441,266.544 270.788 C 267.406 269.328,267.148 269.209,266.214 270.635 M263.565 275.300 C 262.646 276.895,261.543 278.785,261.114 279.500 C 260.686 280.215,260.431 280.800,260.550 280.800 C 260.668 280.800,261.516 279.495,262.435 277.900 C 263.354 276.305,264.457 274.415,264.886 273.700 C 265.314 272.985,265.569 272.400,265.450 272.400 C 265.332 272.400,264.484 273.705,263.565 275.300 M303.053 275.300 L 302.333 276.600 303.158 275.600 C 303.889 274.713,304.214 274.000,303.886 274.000 C 303.824 274.000,303.449 274.585,303.053 275.300 M301.400 278.000 C 301.059 278.660,300.869 279.200,300.979 279.200 C 301.089 279.200,301.459 278.660,301.800 278.000 C 302.141 277.340,302.331 276.800,302.221 276.800 C 302.111 276.800,301.741 277.340,301.400 278.000 M259.453 282.500 L 258.733 283.800 259.558 282.800 C 260.289 281.913,260.614 281.200,260.286 281.200 C 260.224 281.200,259.849 281.785,259.453 282.500 M298.200 283.600 C 297.859 284.260,297.669 284.800,297.779 284.800 C 297.889 284.800,298.259 284.260,298.600 283.600 C 298.941 282.940,299.131 282.400,299.021 282.400 C 298.911 282.400,298.541 282.940,298.200 283.600 M258.320 284.471 C 258.029 285.187,258.404 285.611,260.000 286.369 C 260.943 286.817,260.956 286.809,260.224 286.222 C 259.796 285.880,259.314 285.600,259.151 285.600 C 258.989 285.600,258.796 285.195,258.724 284.700 C 258.616 283.956,258.546 283.916,258.320 284.471 M296.614 286.235 C 296.241 286.804,296.027 287.361,296.139 287.472 C 296.250 287.583,296.629 287.118,296.981 286.437 C 297.759 284.933,297.544 284.815,296.614 286.235 M262.000 287.564 C 262.550 288.014,263.180 288.383,263.400 288.385 C 263.828 288.388,263.105 287.834,261.800 287.160 C 261.269 286.885,261.336 287.021,262.000 287.564 M295.014 289.035 C 294.641 289.604,294.427 290.161,294.539 290.272 C 294.650 290.383,295.029 289.918,295.381 289.237 C 296.159 287.733,295.944 287.615,295.014 289.035 M266.611 290.139 C 268.519 291.441,269.600 292.078,269.600 291.899 C 269.600 291.645,266.504 289.600,266.120 289.600 C 265.956 289.600,266.177 289.842,266.611 290.139 M270.400 292.420 C 271.787 293.361,272.578 293.635,271.600 292.836 C 271.050 292.386,270.420 292.017,270.200 292.015 C 269.980 292.013,270.070 292.196,270.400 292.420 M273.200 294.020 C 274.587 294.961,275.378 295.235,274.400 294.436 C 273.850 293.986,273.220 293.617,273.000 293.615 C 272.780 293.613,272.870 293.796,273.200 294.020 M290.761 296.500 C 289.841 298.095,288.808 299.889,288.466 300.486 C 288.124 301.083,287.564 301.647,287.222 301.739 C 286.710 301.878,286.721 301.915,287.282 301.954 C 287.731 301.984,288.536 301.009,289.635 299.100 C 290.554 297.505,291.657 295.615,292.086 294.900 C 292.514 294.185,292.769 293.600,292.650 293.600 C 292.532 293.600,291.682 294.905,290.761 296.500 M278.400 296.990 C 278.400 297.094,278.985 297.465,279.700 297.814 L 281.000 298.448 280.000 297.633 C 279.037 296.848,278.400 296.592,278.400 296.990 M281.200 298.590 C 281.200 298.694,281.785 299.065,282.500 299.414 L 283.800 300.048 282.800 299.233 C 281.837 298.448,281.200 298.192,281.200 298.590 M284.000 300.179 C 284.000 300.289,284.540 300.659,285.200 301.000 C 285.860 301.341,286.400 301.531,286.400 301.421 C 286.400 301.311,285.860 300.941,285.200 300.600 C 284.540 300.259,284.000 300.069,284.000 300.179 M176.100 342.300 C 181.985 342.362,191.615 342.362,197.500 342.300 C 203.385 342.237,198.570 342.186,186.800 342.186 C 175.030 342.186,170.215 342.237,176.100 342.300 M175.728 357.900 C 181.849 357.962,191.749 357.962,197.728 357.900 C 203.708 357.837,198.700 357.787,186.600 357.787 C 174.500 357.787,169.608 357.838,175.728 357.900 " stroke="none" fill="#f86362" fill-rule="evenodd"></path><path id="path2" d="M21.407 16.544 C 19.213 17.154,17.118 19.359,16.500 21.710 C 15.751 24.559,15.780 375.823,16.529 378.329 C 17.336 381.025,18.886 382.676,21.279 383.386 C 23.830 384.144,306.972 384.337,309.688 383.582 C 311.484 383.083,313.384 381.552,314.314 379.852 C 314.940 378.709,315.017 375.891,315.200 347.600 L 315.400 316.600 316.499 314.910 C 317.803 312.904,319.037 312.025,321.773 311.156 L 323.800 310.511 323.904 291.656 C 323.995 275.061,323.935 272.800,323.404 272.800 C 323.072 272.800,322.800 272.955,322.800 273.145 C 322.800 273.510,321.190 276.458,317.416 283.000 C 314.014 288.899,313.726 289.401,313.138 290.445 C 312.842 290.970,312.510 291.490,312.400 291.600 C 312.290 291.710,311.958 292.230,311.662 292.755 C 310.835 294.225,309.682 296.256,308.800 297.800 C 308.360 298.570,307.640 299.830,307.200 300.600 C 306.760 301.370,306.060 302.585,305.645 303.300 C 305.230 304.015,303.554 306.940,301.921 309.800 C 300.288 312.660,298.693 315.441,298.376 315.980 C 297.427 317.596,295.229 319.873,293.461 321.071 C 292.548 321.691,291.710 322.297,291.600 322.418 C 291.490 322.539,290.770 323.071,290.000 323.600 C 289.230 324.129,288.510 324.669,288.400 324.800 C 288.290 324.931,287.570 325.477,286.800 326.014 C 286.030 326.550,285.130 327.209,284.800 327.478 C 284.470 327.747,282.940 328.882,281.400 330.000 C 279.860 331.118,278.330 332.253,278.000 332.522 C 277.670 332.791,276.770 333.453,276.000 333.992 C 274.183 335.266,265.182 341.892,264.391 342.539 C 264.056 342.812,262.886 343.646,261.791 344.392 C 260.696 345.137,259.710 345.858,259.600 345.993 C 259.490 346.128,258.770 346.674,258.000 347.206 C 257.230 347.738,256.397 348.360,256.149 348.587 C 255.901 348.814,253.946 350.260,251.805 351.800 C 249.664 353.340,247.437 355.005,246.856 355.500 C 246.275 355.994,245.575 356.399,245.300 356.400 C 245.025 356.400,244.799 356.535,244.797 356.700 C 244.782 358.117,238.816 358.445,236.520 357.155 C 232.930 355.139,231.713 352.128,232.371 346.894 C 232.612 344.972,233.178 339.980,233.628 335.800 C 234.079 331.620,234.618 326.670,234.826 324.800 C 235.834 315.768,236.078 313.566,236.401 310.600 C 236.592 308.840,236.946 305.690,237.188 303.600 C 237.980 296.750,238.386 293.038,238.610 290.600 C 238.908 287.363,240.203 282.800,240.823 282.800 C 240.948 282.800,241.298 282.170,241.600 281.400 C 241.902 280.630,242.262 280.000,242.400 280.000 C 242.538 280.000,242.898 279.370,243.200 278.600 C 243.502 277.830,243.875 277.200,244.028 277.200 C 244.181 277.200,244.410 276.885,244.536 276.500 C 244.662 276.115,245.248 274.990,245.839 274.000 C 246.430 273.010,247.320 271.480,247.817 270.600 C 248.573 269.262,250.602 265.741,255.193 257.800 C 255.575 257.140,256.370 255.790,256.961 254.800 C 257.552 253.810,258.138 252.685,258.264 252.300 C 258.390 251.915,258.652 251.600,258.847 251.600 C 259.041 251.600,259.200 251.428,259.200 251.218 C 259.200 251.007,259.765 249.882,260.456 248.718 C 261.147 247.553,262.047 246.015,262.456 245.300 C 262.865 244.585,263.537 243.415,263.950 242.700 C 267.301 236.888,269.479 233.067,270.506 231.200 C 271.171 229.990,271.850 228.820,272.015 228.600 C 272.180 228.380,272.677 227.550,273.120 226.755 C 274.731 223.862,275.004 223.396,275.200 223.200 C 275.310 223.090,275.642 222.570,275.938 222.045 C 276.758 220.589,277.907 218.563,278.857 216.900 C 279.328 216.075,280.165 214.590,280.718 213.600 C 281.270 212.610,282.979 209.640,284.516 207.000 C 287.143 202.487,287.961 201.066,289.262 198.755 C 289.558 198.230,289.890 197.710,290.000 197.600 C 290.174 197.426,290.721 196.447,292.571 193.000 C 292.807 192.560,293.090 192.110,293.200 192.000 C 293.310 191.890,293.642 191.370,293.938 190.845 C 294.233 190.320,294.844 189.240,295.294 188.445 C 295.745 187.650,296.566 186.190,297.120 185.200 C 297.674 184.210,298.549 182.729,299.064 181.908 C 299.579 181.087,300.000 180.337,300.000 180.241 C 300.000 180.145,300.836 178.656,301.858 176.933 C 303.860 173.556,304.870 171.803,307.262 167.555 C 307.558 167.030,307.890 166.510,308.000 166.400 C 308.372 166.028,309.620 163.809,310.306 162.300 C 310.682 161.475,311.126 160.800,311.294 160.800 C 311.462 160.800,311.600 160.636,311.600 160.435 C 311.600 160.235,313.876 156.140,316.658 151.335 C 319.440 146.531,322.230 141.637,322.858 140.459 L 324.000 138.319 324.000 127.642 L 324.000 116.966 322.100 116.462 C 319.529 115.780,317.537 114.331,316.371 112.295 L 315.400 110.600 315.200 66.000 C 315.014 24.512,314.951 21.311,314.300 20.121 C 313.416 18.503,311.473 17.068,309.354 16.467 C 307.055 15.815,23.757 15.891,21.407 16.544 M176.800 42.747 C 178.230 42.985,180.166 43.294,181.103 43.432 C 182.039 43.571,182.905 43.845,183.026 44.042 C 183.148 44.239,183.629 44.400,184.095 44.400 C 184.883 44.400,186.700 44.891,188.600 45.616 C 189.040 45.784,190.480 46.335,191.800 46.840 C 196.916 48.798,205.527 53.377,207.518 55.198 C 207.893 55.541,208.830 56.263,209.600 56.802 C 210.370 57.341,211.375 58.147,211.834 58.591 C 212.292 59.036,213.691 60.277,214.942 61.348 C 216.783 62.925,220.323 66.886,223.753 71.209 C 225.017 72.802,226.800 75.589,226.800 75.972 C 226.800 76.207,226.935 76.401,227.100 76.403 C 227.265 76.405,227.602 76.810,227.848 77.303 C 228.094 77.796,229.209 79.963,230.325 82.118 C 233.843 88.913,235.439 93.953,237.180 103.767 C 238.351 110.365,237.581 124.135,235.595 132.116 C 231.704 147.755,220.420 164.149,207.600 172.788 C 206.170 173.752,204.910 174.657,204.800 174.799 C 204.690 174.942,204.330 175.176,204.000 175.320 C 203.670 175.464,202.500 176.122,201.400 176.782 C 197.841 178.918,193.092 181.079,188.770 182.530 C 172.057 188.141,151.987 187.312,137.000 180.393 C 135.680 179.784,134.015 179.042,133.300 178.745 C 132.585 178.448,132.000 178.102,132.000 177.977 C 132.000 177.852,131.370 177.502,130.600 177.200 C 129.830 176.898,129.200 176.504,129.200 176.325 C 129.200 176.146,129.015 176.000,128.790 176.000 C 128.265 176.000,122.726 172.285,120.163 170.214 C 116.609 167.343,110.475 160.967,108.412 158.000 C 107.877 157.230,107.318 156.510,107.171 156.400 C 104.565 154.451,96.000 136.123,96.000 132.495 C 96.000 132.029,95.839 131.548,95.642 131.426 C 95.445 131.305,95.181 130.529,95.054 129.703 C 94.927 128.876,94.614 127.030,94.357 125.600 C 93.759 122.265,93.720 106.204,94.301 102.800 C 94.545 101.370,94.945 99.390,95.191 98.400 C 95.436 97.410,95.785 95.970,95.966 95.200 C 97.040 90.638,101.047 81.066,103.281 77.728 C 103.897 76.808,104.402 75.908,104.404 75.728 C 104.408 75.436,105.545 73.847,108.800 69.585 C 113.606 63.292,120.879 56.789,127.834 52.566 C 131.535 50.320,138.743 46.814,139.676 46.806 C 140.048 46.803,140.464 46.620,140.600 46.400 C 140.736 46.180,141.276 46.000,141.800 46.000 C 142.324 46.000,142.864 45.820,143.000 45.600 C 143.136 45.380,143.676 45.200,144.200 45.200 C 144.724 45.200,145.252 45.040,145.373 44.844 C 145.580 44.508,146.593 44.272,150.103 43.742 C 150.929 43.618,151.705 43.355,151.826 43.158 C 151.948 42.961,152.982 42.797,154.124 42.794 C 155.266 42.791,156.470 42.609,156.800 42.392 C 157.574 41.881,173.279 42.159,176.800 42.747 M68.087 212.204 C 74.535 216.935,71.355 226.800,63.382 226.800 C 58.476 226.800,54.227 221.472,55.621 217.068 C 56.150 215.397,57.489 213.119,58.093 212.864 C 58.270 212.790,58.644 212.520,58.924 212.264 C 61.156 210.232,65.361 210.204,68.087 212.204 M212.448 212.176 C 216.790 215.362,217.065 223.549,212.881 225.091 C 212.507 225.229,212.110 225.445,212.000 225.571 C 210.945 226.780,209.959 226.800,152.424 226.800 C 95.559 226.800,92.800 226.744,92.800 225.582 C 92.800 225.423,92.448 225.201,92.018 225.089 C 91.588 224.976,90.688 224.020,90.018 222.964 C 87.669 219.259,88.700 214.732,92.507 212.035 L 94.200 210.836 152.400 210.828 L 210.600 210.820 212.448 212.176 M67.262 255.346 C 73.767 258.999,72.510 268.761,65.321 270.427 C 59.760 271.716,53.961 265.907,55.611 260.700 C 57.314 255.323,62.764 252.819,67.262 255.346 M210.681 254.892 C 211.297 255.162,211.890 255.482,212.000 255.601 C 212.110 255.721,212.695 256.133,213.300 256.518 C 213.905 256.903,214.400 257.484,214.400 257.809 C 214.400 258.134,214.551 258.400,214.736 258.400 C 214.921 258.400,215.306 259.108,215.591 259.973 C 216.722 263.400,215.213 267.321,211.926 269.497 L 210.258 270.600 152.429 270.600 L 94.600 270.600 93.182 269.718 C 88.993 267.112,87.273 261.012,89.992 258.400 C 90.106 258.290,90.392 257.852,90.627 257.427 C 90.861 257.001,91.401 256.461,91.827 256.227 C 92.252 255.992,92.690 255.705,92.800 255.589 C 93.828 254.504,96.411 254.453,152.281 254.427 C 196.776 254.406,209.812 254.510,210.681 254.892 M67.200 299.039 C 74.601 303.070,71.848 314.400,63.468 314.400 C 58.556 314.400,54.253 309.138,55.570 304.741 C 57.210 299.267,62.687 296.582,67.200 299.039 M211.926 299.303 C 215.213 301.479,216.722 305.400,215.591 308.827 C 215.306 309.692,214.921 310.400,214.736 310.400 C 214.551 310.400,214.400 310.666,214.400 310.991 C 214.400 311.316,213.905 311.897,213.300 312.282 C 212.695 312.667,212.110 313.079,212.000 313.199 C 210.930 314.362,209.033 314.400,152.400 314.400 C 95.842 314.400,93.908 314.361,92.800 313.208 C 92.690 313.094,92.252 312.808,91.827 312.573 C 91.401 312.339,90.861 311.799,90.627 311.373 C 90.392 310.948,90.106 310.510,89.992 310.400 C 86.746 307.281,89.914 299.593,94.946 298.377 C 95.636 298.210,121.863 298.102,153.229 298.137 L 210.259 298.200 211.926 299.303 M210.905 342.500 C 211.397 342.775,211.890 343.103,212.000 343.229 C 212.110 343.355,212.507 343.571,212.881 343.709 C 217.065 345.251,216.790 353.438,212.448 356.624 L 210.600 357.980 186.872 357.990 L 163.144 358.000 161.381 356.787 C 156.351 353.326,156.315 346.771,161.307 343.235 L 163.000 342.036 186.505 342.018 C 204.594 342.004,210.217 342.115,210.905 342.500 " stroke="none" fill="#fbfbfb" fill-rule="evenodd"></path><path id="path3" d="M163.800 93.876 C 156.113 94.875,151.702 103.208,153.670 113.009 C 156.232 125.762,173.765 126.645,177.382 114.204 C 180.682 102.852,173.815 92.575,163.800 93.876 M336.209 150.200 C 335.874 150.750,335.304 151.684,334.942 152.275 C 334.580 152.866,332.940 155.701,331.297 158.575 C 329.655 161.449,327.971 164.385,327.555 165.100 C 327.140 165.815,326.440 167.030,326.000 167.800 C 325.560 168.570,324.840 169.830,324.400 170.600 C 322.763 173.464,322.008 174.769,317.803 182.000 C 315.435 186.070,312.956 190.390,312.292 191.600 C 311.628 192.810,310.950 193.980,310.785 194.200 C 310.620 194.420,310.106 195.275,309.643 196.100 C 309.179 196.925,308.440 198.230,308.000 199.000 C 307.560 199.770,306.857 201.006,306.437 201.747 C 306.017 202.487,304.937 204.306,304.037 205.788 C 303.137 207.269,302.400 208.538,302.400 208.606 C 302.400 208.675,300.846 211.401,298.946 214.665 C 297.046 217.929,295.156 221.185,294.746 221.900 C 293.599 223.899,292.477 225.865,291.637 227.347 C 291.217 228.087,290.137 229.906,289.237 231.388 C 288.337 232.869,287.600 234.148,287.600 234.229 C 287.600 234.309,286.722 235.866,285.648 237.688 C 284.575 239.509,282.302 243.430,280.598 246.400 C 278.893 249.370,277.162 252.385,276.749 253.100 C 276.337 253.815,275.657 255.006,275.237 255.747 C 274.817 256.487,273.737 258.306,272.837 259.788 C 271.937 261.269,271.200 262.537,271.200 262.605 C 271.200 262.673,268.926 266.660,266.148 271.465 C 263.369 276.269,260.742 280.830,260.310 281.600 C 259.878 282.370,259.362 283.171,259.162 283.380 C 257.873 284.733,258.519 285.330,265.389 289.136 C 266.715 289.870,267.980 290.616,268.200 290.793 C 268.420 290.970,269.275 291.494,270.100 291.957 C 270.925 292.421,272.230 293.160,273.000 293.600 C 273.770 294.040,275.030 294.760,275.800 295.200 C 276.570 295.640,277.830 296.360,278.600 296.800 C 282.065 298.780,282.724 299.162,284.718 300.344 C 287.593 302.049,287.603 302.045,289.738 298.300 C 290.773 296.485,292.091 294.190,292.666 293.200 C 293.785 291.276,294.737 289.617,295.963 287.453 C 296.383 286.713,297.463 284.894,298.363 283.412 C 299.263 281.931,300.000 280.662,300.000 280.594 C 300.000 280.525,301.554 277.799,303.454 274.535 C 306.799 268.787,307.502 267.572,309.200 264.600 C 309.640 263.830,310.360 262.570,310.800 261.800 C 311.240 261.030,311.936 259.815,312.347 259.100 C 312.973 258.011,321.563 243.179,324.046 238.900 C 324.461 238.185,325.160 236.970,325.600 236.200 C 326.040 235.430,326.735 234.215,327.143 233.500 C 327.552 232.785,328.370 231.390,328.961 230.400 C 329.552 229.410,330.138 228.285,330.264 227.900 C 330.390 227.515,330.652 227.200,330.847 227.200 C 331.041 227.200,331.200 227.036,331.200 226.835 C 331.200 226.635,333.474 222.540,336.252 217.735 C 341.464 208.725,342.239 207.382,343.600 205.000 C 345.580 201.535,345.962 200.876,347.144 198.882 C 347.835 197.718,348.400 196.593,348.400 196.382 C 348.400 196.172,348.580 196.000,348.800 196.000 C 349.020 196.000,349.200 195.834,349.200 195.632 C 349.200 195.429,350.119 193.674,351.241 191.732 C 352.364 189.789,353.691 187.480,354.190 186.600 C 354.688 185.720,356.043 183.380,357.200 181.400 C 359.336 177.743,360.167 176.308,361.600 173.800 C 362.433 172.342,363.187 171.035,364.947 168.000 C 365.521 167.010,365.993 166.082,365.995 165.938 C 365.999 165.715,364.516 164.791,360.600 162.578 C 360.160 162.329,359.125 161.737,358.300 161.263 C 357.475 160.788,356.170 160.040,355.400 159.600 C 354.630 159.160,353.370 158.440,352.600 158.000 C 351.830 157.560,350.525 156.821,349.700 156.357 C 348.875 155.894,348.020 155.373,347.800 155.200 C 347.397 154.883,347.005 154.655,340.800 151.141 C 336.816 148.884,336.989 148.919,336.209 150.200 " stroke="none" fill="#fabb53" fill-rule="evenodd"></path><path id="path4" d="M21.434 16.097 C 19.216 16.683,16.658 19.353,16.067 21.700 C 15.395 24.370,15.392 376.212,16.064 378.457 C 16.757 380.768,18.876 383.014,21.070 383.762 C 23.449 384.572,306.619 384.759,309.823 383.952 C 312.029 383.397,314.477 381.056,315.130 378.877 C 315.475 377.723,315.575 369.481,315.507 347.754 L 315.415 318.200 315.207 348.400 C 314.978 381.791,315.141 379.832,312.402 382.137 C 310.113 384.063,315.422 383.995,165.773 383.998 C 7.868 384.000,20.366 384.219,18.129 381.415 C 15.871 378.585,16.013 390.679,16.006 200.106 C 15.999 7.373,15.820 20.989,18.404 18.404 C 20.980 15.829,10.483 16.000,165.659 16.000 C 316.282 16.000,309.609 15.914,312.300 17.888 C 315.194 20.010,314.977 16.460,315.206 65.400 L 315.412 109.400 315.506 65.960 C 315.608 18.790,315.705 20.862,313.280 18.315 C 310.456 15.348,324.141 15.595,165.629 15.641 C 68.740 15.669,22.498 15.815,21.434 16.097 M156.853 42.359 C 156.534 42.561,157.865 42.628,160.053 42.520 C 165.031 42.275,165.435 42.069,161.000 42.038 C 159.020 42.024,157.154 42.168,156.853 42.359 M167.000 42.199 C 167.962 42.527,174.848 42.676,174.347 42.359 C 174.046 42.168,172.180 42.024,170.200 42.038 C 168.220 42.052,166.780 42.124,167.000 42.199 M151.794 43.209 C 151.627 43.479,152.131 43.528,153.271 43.354 C 155.556 43.003,155.710 42.800,153.690 42.800 C 152.787 42.800,151.933 42.984,151.794 43.209 M176.033 42.949 C 176.125 43.031,177.100 43.218,178.200 43.365 C 179.620 43.555,180.026 43.514,179.600 43.223 C 179.061 42.854,175.632 42.590,176.033 42.949 M148.400 44.000 C 147.605 44.514,148.604 44.514,149.800 44.000 L 150.600 43.656 149.800 43.634 C 149.360 43.622,148.730 43.787,148.400 44.000 M181.800 44.000 C 182.901 44.473,183.292 44.473,183.000 44.000 C 182.864 43.780,182.358 43.613,181.876 43.628 C 181.031 43.655,181.029 43.669,181.800 44.000 M145.400 44.800 C 145.108 45.273,145.499 45.273,146.600 44.800 C 147.371 44.469,147.369 44.455,146.524 44.428 C 146.042 44.413,145.536 44.580,145.400 44.800 M184.600 44.800 C 185.796 45.314,186.795 45.314,186.000 44.800 C 185.670 44.587,185.040 44.422,184.600 44.434 L 183.800 44.456 184.600 44.800 M189.600 46.400 C 189.930 46.613,190.470 46.788,190.800 46.788 C 191.333 46.788,191.333 46.745,190.800 46.400 C 190.470 46.187,189.930 46.012,189.600 46.012 C 189.067 46.012,189.067 46.055,189.600 46.400 M138.400 47.200 C 137.867 47.545,137.867 47.588,138.400 47.588 C 138.730 47.588,139.270 47.413,139.600 47.200 C 140.133 46.855,140.133 46.812,139.600 46.812 C 139.270 46.812,138.730 46.987,138.400 47.200 M133.000 49.731 C 124.503 54.201,119.816 57.679,113.524 64.183 C 109.517 68.325,110.474 67.750,115.057 63.263 C 121.160 57.287,126.903 53.145,133.700 49.817 C 135.845 48.767,137.600 47.839,137.600 47.754 C 137.600 47.390,136.777 47.744,133.000 49.731 M195.600 48.800 C 196.810 49.439,197.980 49.962,198.200 49.962 C 198.420 49.962,197.610 49.439,196.400 48.800 C 195.190 48.161,194.020 47.638,193.800 47.638 C 193.580 47.638,194.390 48.161,195.600 48.800 M198.800 50.143 C 198.800 50.222,200.285 51.154,202.100 52.215 C 203.915 53.275,206.885 55.279,208.700 56.667 C 210.515 58.055,212.000 59.090,212.000 58.967 C 212.000 58.639,211.186 57.903,209.600 56.798 C 208.830 56.261,207.897 55.547,207.526 55.211 C 206.125 53.940,198.800 49.686,198.800 50.143 M215.562 62.407 C 217.411 64.273,219.906 67.015,221.107 68.500 C 222.308 69.985,223.382 71.200,223.494 71.200 C 223.978 71.200,217.666 63.741,215.741 62.037 C 212.385 59.068,212.342 59.157,215.562 62.407 M106.600 72.430 C 105.500 73.970,104.529 75.448,104.443 75.715 C 104.357 75.982,103.938 76.697,103.513 77.304 C 102.499 78.752,99.119 85.653,99.324 85.858 C 99.412 85.945,100.291 84.348,101.278 82.308 C 103.056 78.634,105.530 74.579,107.992 71.300 C 108.695 70.365,109.119 69.607,108.935 69.615 C 108.751 69.624,107.700 70.891,106.600 72.430 M225.115 73.789 C 225.907 74.992,226.624 75.910,226.706 75.827 C 226.907 75.627,224.274 71.616,223.937 71.607 C 223.792 71.603,224.322 72.585,225.115 73.789 M227.415 77.500 C 228.812 79.672,229.200 80.172,229.191 79.789 C 229.186 79.575,228.830 78.950,228.400 78.400 C 227.970 77.850,227.614 77.175,227.609 76.900 C 227.604 76.625,227.399 76.400,227.154 76.400 C 226.889 76.400,226.996 76.847,227.415 77.500 M229.300 80.700 C 231.305 84.777,232.410 87.299,233.200 89.600 C 233.464 90.370,233.833 91.360,234.019 91.800 C 234.205 92.240,234.676 93.950,235.065 95.600 C 235.454 97.250,235.828 98.330,235.895 98.000 C 236.274 96.136,230.422 80.400,229.350 80.400 C 229.241 80.400,229.219 80.535,229.300 80.700 M97.800 89.200 C 97.650 89.673,97.617 90.150,97.727 90.260 C 97.837 90.370,98.050 90.073,98.200 89.600 C 98.350 89.127,98.383 88.650,98.273 88.540 C 98.163 88.430,97.950 88.727,97.800 89.200 M96.273 93.753 C 96.123 94.145,96.011 94.766,96.025 95.133 C 96.042 95.575,96.181 95.474,96.437 94.834 C 96.649 94.303,96.761 93.682,96.685 93.454 C 96.609 93.227,96.424 93.361,96.273 93.753 M95.473 96.953 C 95.323 97.345,95.211 97.966,95.225 98.333 C 95.242 98.775,95.381 98.674,95.637 98.034 C 95.849 97.503,95.961 96.882,95.885 96.654 C 95.809 96.427,95.624 96.561,95.473 96.953 M236.068 99.600 C 236.087 101.250,236.717 102.956,236.732 101.400 C 236.738 100.740,236.589 99.840,236.400 99.400 C 236.087 98.673,236.057 98.691,236.068 99.600 M94.673 100.153 C 94.523 100.545,94.418 101.436,94.440 102.133 C 94.479 103.367,94.490 103.359,94.849 101.827 C 95.245 100.137,95.124 98.979,94.673 100.153 M237.075 105.800 C 237.198 107.340,237.366 108.675,237.449 108.767 C 237.726 109.073,237.510 105.416,237.179 104.200 C 236.973 103.443,236.935 104.034,237.075 105.800 M93.856 105.284 C 93.721 105.788,93.633 107.370,93.660 108.800 L 93.709 111.400 94.035 108.014 C 94.365 104.582,94.302 103.619,93.856 105.284 M315.641 110.146 C 315.501 112.706,322.014 118.120,323.475 116.658 C 323.597 116.536,322.831 116.218,321.771 115.951 C 319.486 115.376,316.805 112.927,316.126 110.796 C 315.880 110.023,315.663 109.733,315.641 110.146 M93.606 119.633 C 93.609 121.265,93.775 122.857,93.973 123.170 C 94.195 123.520,94.249 122.440,94.113 120.370 C 93.835 116.118,93.598 115.774,93.606 119.633 M237.058 121.939 C 236.885 123.555,236.832 124.965,236.939 125.072 C 237.219 125.353,237.703 121.127,237.523 119.971 C 237.439 119.437,237.230 120.322,237.058 121.939 M94.453 126.000 C 94.431 126.770,94.587 127.670,94.800 128.000 C 95.277 128.739,95.277 127.676,94.800 125.800 L 94.495 124.600 94.453 126.000 M236.182 127.382 C 236.029 128.402,236.002 129.335,236.122 129.455 C 236.242 129.575,236.465 128.839,236.618 127.818 C 236.771 126.798,236.798 125.865,236.678 125.745 C 236.558 125.625,236.335 126.361,236.182 127.382 M95.228 130.276 C 95.213 130.758,95.380 131.264,95.600 131.400 C 96.073 131.692,96.073 131.301,95.600 130.200 C 95.269 129.429,95.255 129.431,95.228 130.276 M235.405 131.271 C 234.996 133.279,233.738 137.196,232.410 140.600 C 231.360 143.291,228.117 149.699,226.665 151.951 C 224.418 155.438,224.323 155.600,224.526 155.600 C 226.519 155.600,237.249 131.515,235.870 130.137 C 235.763 130.030,235.554 130.541,235.405 131.271 M96.012 133.200 C 96.012 133.530,96.187 134.070,96.400 134.400 C 96.745 134.933,96.788 134.933,96.788 134.400 C 96.788 134.070,96.613 133.530,96.400 133.200 C 96.055 132.667,96.012 132.667,96.012 133.200 M96.812 136.000 C 96.812 136.330,96.987 136.870,97.200 137.200 C 97.545 137.733,97.588 137.733,97.588 137.200 C 97.588 136.870,97.413 136.330,97.200 136.000 C 96.855 135.467,96.812 135.467,96.812 136.000 M158.000 139.846 C 150.220 141.539,143.649 145.093,138.171 150.571 C 135.538 153.204,132.000 157.880,132.000 158.726 C 132.000 159.050,138.672 163.537,139.782 163.959 C 140.182 164.112,143.267 165.481,145.800 166.631 C 153.547 170.148,167.704 171.334,176.400 169.195 C 177.170 169.005,178.700 168.637,179.800 168.376 C 182.984 167.620,185.189 166.844,188.336 165.373 C 189.950 164.618,191.349 164.000,191.444 164.000 C 191.612 164.000,192.762 163.290,197.100 160.505 C 199.667 158.858,199.669 158.790,197.250 155.363 C 188.663 143.200,172.306 136.733,158.000 139.846 M322.568 140.939 C 322.111 141.852,319.703 146.110,317.217 150.400 C 314.731 154.690,312.619 158.335,312.525 158.500 C 312.430 158.665,312.445 158.800,312.557 158.800 C 312.773 158.800,314.902 155.285,316.918 151.600 C 317.580 150.390,318.455 148.922,318.861 148.338 C 319.267 147.754,319.600 147.172,319.600 147.044 C 319.600 146.916,320.516 145.283,321.637 143.415 C 322.757 141.548,323.612 139.852,323.537 139.648 C 323.461 139.444,323.026 140.025,322.568 140.939 M100.000 144.197 C 100.000 144.674,103.881 151.638,105.461 153.996 C 107.954 157.717,107.606 156.701,104.887 152.324 C 103.615 150.276,102.072 147.565,101.458 146.300 C 100.466 144.258,100.000 143.585,100.000 144.197 M222.621 157.800 C 221.810 158.790,221.293 159.593,221.473 159.584 C 221.799 159.569,224.574 156.000,224.261 156.000 C 224.170 156.000,223.433 156.810,222.621 157.800 M107.600 156.566 C 107.600 157.810,118.875 170.058,119.471 169.462 C 119.597 169.336,119.093 168.732,118.350 168.120 C 116.317 166.444,110.913 160.696,109.154 158.338 C 108.299 157.193,107.600 156.395,107.600 156.566 M218.195 162.991 C 216.722 164.637,213.736 167.455,211.559 169.254 C 207.572 172.548,206.496 173.634,208.900 171.937 C 212.646 169.291,222.114 160.000,221.063 160.000 C 220.958 160.000,219.667 161.346,218.195 162.991 M310.504 161.874 C 309.817 163.353,310.094 163.425,310.944 161.988 C 311.330 161.334,311.500 160.801,311.323 160.803 C 311.145 160.805,310.777 161.287,310.504 161.874 M309.014 164.635 C 308.641 165.204,308.405 165.738,308.489 165.822 C 308.573 165.907,308.958 165.441,309.344 164.788 C 310.206 163.328,309.948 163.209,309.014 164.635 M307.464 167.100 C 307.338 167.485,306.752 168.610,306.161 169.600 C 305.570 170.590,304.778 171.940,304.401 172.600 C 304.024 173.260,302.879 175.210,301.858 176.933 C 300.836 178.656,300.000 180.177,300.000 180.313 C 300.000 180.747,300.699 179.846,301.562 178.300 C 303.014 175.700,306.279 170.050,307.686 167.700 C 308.115 166.985,308.292 166.400,308.079 166.400 C 307.867 166.400,307.590 166.715,307.464 167.100 M120.000 169.859 C 120.000 170.340,128.340 176.193,128.623 175.911 C 128.708 175.825,127.608 174.986,126.178 174.046 C 124.748 173.106,122.773 171.722,121.789 170.971 C 120.805 170.220,120.000 169.719,120.000 169.859 M202.300 175.829 C 201.695 176.157,201.200 176.510,201.200 176.613 C 201.200 176.999,201.832 176.757,202.800 176.000 C 203.989 175.070,203.811 175.009,202.300 175.829 M129.203 176.290 C 129.207 176.655,131.265 177.669,131.508 177.425 C 131.600 177.334,131.118 176.971,130.437 176.619 C 129.757 176.267,129.201 176.119,129.203 176.290 M198.800 177.795 C 192.019 181.469,183.232 184.236,174.614 185.411 L 170.600 185.958 174.000 185.749 C 179.085 185.437,188.245 183.085,193.589 180.719 C 197.020 179.199,200.439 177.460,200.643 177.130 C 200.933 176.661,200.811 176.705,198.800 177.795 M132.000 177.909 C 132.000 178.266,134.374 179.360,134.618 179.115 C 134.713 179.021,134.162 178.644,133.395 178.278 C 132.628 177.912,132.000 177.746,132.000 177.909 M135.200 179.383 C 135.200 180.991,153.926 186.107,159.200 185.940 C 159.970 185.916,158.890 185.665,156.800 185.382 C 149.146 184.349,143.454 182.780,136.700 179.842 C 135.875 179.483,135.200 179.276,135.200 179.383 M298.233 183.252 C 297.429 184.601,296.853 185.787,296.953 185.887 C 297.053 185.987,297.354 185.648,297.623 185.134 C 297.891 184.620,298.552 183.435,299.093 182.500 C 299.634 181.565,299.990 180.800,299.885 180.800 C 299.780 180.800,299.036 181.904,298.233 183.252 M164.100 186.291 C 164.925 186.378,166.275 186.378,167.100 186.291 C 167.925 186.205,167.250 186.134,165.600 186.134 C 163.950 186.134,163.275 186.205,164.100 186.291 M295.814 187.435 C 295.441 188.004,295.227 188.561,295.339 188.672 C 295.450 188.783,295.829 188.318,296.181 187.637 C 296.959 186.133,296.744 186.015,295.814 187.435 M294.214 190.235 C 293.841 190.804,293.627 191.361,293.739 191.472 C 293.850 191.583,294.229 191.118,294.581 190.437 C 295.359 188.933,295.144 188.815,294.214 190.235 M292.800 192.382 C 292.800 192.593,292.260 193.681,291.600 194.800 C 290.400 196.834,289.932 198.079,290.927 196.589 C 292.391 194.396,293.587 192.000,293.217 192.000 C 292.988 192.000,292.800 192.172,292.800 192.382 M289.068 199.100 C 288.969 199.265,288.532 200.030,288.098 200.800 C 287.663 201.570,285.748 204.880,283.842 208.155 C 281.936 211.430,280.450 214.183,280.540 214.273 C 280.680 214.413,281.338 213.357,283.827 209.000 C 284.078 208.560,285.228 206.580,286.382 204.600 C 288.918 200.250,289.681 198.800,289.434 198.800 C 289.331 198.800,289.166 198.935,289.068 199.100 M60.590 211.216 C 60.421 211.489,60.723 211.538,61.466 211.360 C 62.999 210.992,63.144 210.800,61.890 210.800 C 61.317 210.800,60.732 210.987,60.590 211.216 M64.800 211.084 C 65.130 211.205,66.030 211.552,66.800 211.854 L 68.200 212.405 67.200 211.611 C 66.650 211.175,65.750 210.828,65.200 210.840 C 64.600 210.854,64.440 210.951,64.800 211.084 M93.200 211.611 L 92.200 212.405 93.600 211.854 C 94.370 211.552,95.270 211.205,95.600 211.084 C 95.960 210.951,95.800 210.854,95.200 210.840 C 94.650 210.828,93.750 211.175,93.200 211.611 M210.038 211.422 C 215.588 213.131,217.300 219.856,213.279 224.153 C 212.685 224.787,212.470 225.222,212.800 225.121 C 218.433 223.391,215.423 210.748,209.400 210.838 C 208.349 210.853,208.428 210.926,210.038 211.422 M58.181 212.706 C 57.488 213.191,56.000 215.485,56.002 216.062 C 56.004 216.358,56.286 216.060,56.629 215.400 C 56.972 214.740,57.633 213.795,58.096 213.300 C 58.938 212.402,58.974 212.150,58.181 212.706 M69.538 213.960 C 70.232 214.928,70.814 216.008,70.832 216.360 C 70.850 216.730,70.944 216.801,71.056 216.527 C 71.313 215.896,70.300 213.991,69.179 212.999 C 68.523 212.418,68.622 212.681,69.538 213.960 M90.671 213.700 C 88.242 216.954,88.055 220.009,90.100 223.030 C 90.815 224.087,91.630 225.024,91.911 225.113 C 92.193 225.201,91.879 224.679,91.214 223.951 C 88.737 221.239,88.544 217.280,90.736 214.170 C 92.173 212.132,92.121 211.757,90.671 213.700 M279.414 215.835 C 279.041 216.404,278.827 216.961,278.939 217.072 C 279.050 217.183,279.429 216.718,279.781 216.037 C 280.559 214.533,280.344 214.415,279.414 215.835 M55.364 217.801 C 54.751 220.243,57.292 224.622,60.295 226.300 C 61.290 226.857,65.837 226.987,66.158 226.469 C 66.270 226.286,65.392 226.218,64.206 226.316 C 59.436 226.712,54.784 221.990,55.832 217.815 C 55.972 217.257,55.981 216.800,55.851 216.800 C 55.721 216.800,55.502 217.251,55.364 217.801 M71.293 218.800 C 71.293 219.570,71.375 219.885,71.476 219.500 C 71.576 219.115,71.576 218.485,71.476 218.100 C 71.375 217.715,71.293 218.030,71.293 218.800 M277.814 218.635 C 277.441 219.204,277.227 219.761,277.339 219.872 C 277.450 219.983,277.829 219.518,278.181 218.837 C 278.959 217.333,278.744 217.215,277.814 218.635 M276.214 221.435 C 275.841 222.004,275.627 222.561,275.739 222.672 C 275.850 222.783,276.229 222.318,276.581 221.637 C 277.359 220.133,277.144 220.015,276.214 221.435 M70.245 222.489 C 69.816 223.400,68.902 224.439,68.128 224.895 C 67.379 225.337,66.859 225.792,66.972 225.905 C 67.648 226.581,71.504 222.225,71.124 221.216 C 71.056 221.034,70.660 221.607,70.245 222.489 M273.846 225.386 C 273.491 225.928,273.200 226.450,273.200 226.545 C 273.200 226.640,272.480 227.903,271.600 229.352 C 270.720 230.800,270.000 232.096,270.000 232.231 C 270.000 232.366,269.667 232.954,269.261 233.538 C 268.187 235.081,265.497 240.000,265.727 240.000 C 265.896 240.000,266.620 238.815,269.027 234.600 C 269.278 234.160,270.428 232.180,271.582 230.200 C 274.057 225.954,274.881 224.400,274.656 224.400 C 274.566 224.400,274.201 224.844,273.846 225.386 M93.600 226.200 C 94.150 226.514,95.140 226.766,95.800 226.759 C 96.767 226.748,96.612 226.638,95.000 226.191 C 92.492 225.494,92.367 225.495,93.600 226.200 M209.000 226.400 L 207.800 226.705 209.076 226.753 C 209.778 226.779,210.464 226.620,210.600 226.400 C 210.874 225.957,210.740 225.957,209.000 226.400 M264.614 241.435 C 264.241 242.004,264.027 242.561,264.139 242.672 C 264.250 242.783,264.629 242.318,264.981 241.637 C 265.759 240.133,265.544 240.015,264.614 241.435 M263.014 244.235 C 262.641 244.804,262.427 245.361,262.539 245.472 C 262.650 245.583,263.029 245.118,263.381 244.437 C 264.159 242.933,263.944 242.815,263.014 244.235 M260.602 248.450 C 259.813 249.797,259.250 250.983,259.351 251.084 C 259.452 251.186,259.754 250.848,260.023 250.334 C 260.291 249.820,260.952 248.635,261.493 247.700 C 262.034 246.765,262.378 246.000,262.257 246.000 C 262.137 246.000,261.392 247.102,260.602 248.450 M257.868 253.100 C 257.769 253.265,257.308 254.075,256.844 254.900 C 255.756 256.834,255.207 257.787,251.051 264.965 C 249.151 268.246,247.666 270.999,247.750 271.083 C 247.880 271.213,248.821 269.695,251.022 265.800 C 251.532 264.899,252.194 263.755,255.189 258.600 C 257.731 254.226,258.479 252.800,258.234 252.800 C 258.131 252.800,257.966 252.935,257.868 253.100 M59.504 255.575 C 56.419 257.532,54.307 261.974,55.539 263.916 C 55.738 264.228,55.867 263.741,55.867 262.680 C 55.867 256.935,61.414 253.321,66.724 255.606 C 67.866 256.097,68.800 256.656,68.800 256.849 C 68.800 257.042,69.019 257.200,69.286 257.200 C 69.987 257.200,68.923 256.249,67.088 255.235 C 64.786 253.964,61.836 254.096,59.504 255.575 M93.900 254.920 C 93.295 255.159,92.800 255.500,92.800 255.677 C 92.800 255.855,92.558 256.000,92.262 256.000 C 91.966 256.000,91.426 256.329,91.062 256.731 C 89.935 257.977,90.332 258.128,91.700 256.975 C 94.431 254.672,90.849 254.800,152.524 254.800 L 209.474 254.800 211.237 255.731 C 217.378 258.973,216.746 267.629,210.200 269.917 C 209.222 270.259,209.161 270.343,209.869 270.368 C 212.270 270.456,216.000 265.770,216.000 262.665 C 216.000 260.932,215.240 258.400,214.720 258.400 C 214.544 258.400,214.400 258.134,214.400 257.809 C 214.400 257.484,213.905 256.903,213.300 256.518 C 212.695 256.133,212.110 255.721,212.000 255.601 C 210.928 254.436,209.069 254.400,152.281 254.443 C 112.084 254.472,94.672 254.615,93.900 254.920 M70.084 258.203 C 70.240 258.445,70.544 259.083,70.759 259.622 C 71.006 260.240,71.159 260.359,71.175 259.944 C 71.189 259.584,70.885 258.945,70.500 258.525 C 70.115 258.106,69.928 257.960,70.084 258.203 M89.043 260.233 C 87.613 263.958,91.499 270.517,95.047 270.368 C 95.541 270.348,95.387 270.193,94.600 269.917 C 91.086 268.689,88.945 265.384,89.319 261.765 C 89.548 259.546,89.471 259.118,89.043 260.233 M71.293 262.400 C 71.293 263.170,71.375 263.485,71.476 263.100 C 71.576 262.715,71.576 262.085,71.476 261.700 C 71.375 261.315,71.293 261.630,71.293 262.400 M70.208 266.237 C 69.339 267.851,67.631 269.278,65.800 269.917 C 64.897 270.233,64.803 270.345,65.420 270.368 C 67.202 270.437,71.553 266.460,71.120 265.160 C 71.050 264.950,70.640 265.435,70.208 266.237 M57.343 267.657 C 58.097 268.807,60.769 270.414,61.854 270.370 C 62.299 270.351,62.056 270.142,61.255 269.852 C 60.515 269.585,59.186 268.758,58.301 268.015 C 56.944 266.876,56.795 266.820,57.343 267.657 M124.131 270.700 C 139.713 270.758,165.093 270.758,180.531 270.700 C 195.969 270.642,183.220 270.595,152.200 270.595 C 121.180 270.595,108.549 270.642,124.131 270.700 M246.614 272.635 C 246.241 273.204,246.027 273.761,246.139 273.872 C 246.250 273.983,246.629 273.518,246.981 272.837 C 247.759 271.333,247.544 271.215,246.614 272.635 M245.014 275.435 C 244.641 276.004,244.427 276.561,244.539 276.672 C 244.650 276.783,245.029 276.318,245.381 275.637 C 246.159 274.133,245.944 274.015,245.014 275.435 M320.338 277.100 C 318.787 279.767,318.477 280.532,319.407 279.400 C 320.144 278.502,322.106 274.800,321.845 274.800 C 321.752 274.800,321.074 275.835,320.338 277.100 M243.304 278.274 C 242.601 279.788,243.010 279.928,243.781 278.437 C 244.133 277.757,244.281 277.201,244.110 277.203 C 243.940 277.205,243.577 277.687,243.304 278.274 M241.704 281.074 C 241.017 282.553,241.294 282.625,242.144 281.188 C 242.530 280.534,242.700 280.001,242.523 280.003 C 242.345 280.005,241.977 280.487,241.704 281.074 M316.765 283.300 C 315.846 284.895,314.758 286.785,314.347 287.500 C 313.936 288.215,313.225 289.430,312.767 290.200 C 312.309 290.970,312.108 291.600,312.321 291.600 C 312.533 291.600,312.813 291.285,312.942 290.900 C 313.072 290.515,313.502 289.660,313.899 289.000 C 317.287 283.359,318.915 280.400,318.632 280.400 C 318.524 280.400,317.684 281.705,316.765 283.300 M240.064 284.000 C 239.772 284.660,239.593 285.371,239.667 285.581 C 239.740 285.791,240.102 285.251,240.470 284.382 C 240.839 283.512,241.018 282.800,240.868 282.800 C 240.718 282.800,240.356 283.340,240.064 284.000 M239.049 287.015 C 238.912 287.373,238.825 288.596,238.855 289.733 L 238.909 291.800 239.209 289.200 C 239.520 286.503,239.476 285.903,239.049 287.015 M238.386 292.033 C 238.229 293.866,237.518 300.717,237.186 303.600 C 236.946 305.690,236.592 308.840,236.400 310.600 C 236.208 312.360,235.871 315.420,235.650 317.400 C 235.429 319.380,235.058 322.710,234.826 324.800 C 234.594 326.890,234.046 331.750,233.607 335.600 C 232.810 342.591,232.656 344.681,232.962 344.367 C 233.052 344.275,233.337 342.220,233.596 339.800 C 234.293 333.304,234.721 329.429,235.188 325.400 C 235.418 323.420,235.779 320.180,235.990 318.200 C 236.202 316.220,236.566 312.980,236.800 311.000 C 237.035 309.020,237.390 305.870,237.590 304.000 C 237.790 302.130,238.153 298.734,238.396 296.453 C 238.640 294.172,238.740 292.207,238.620 292.086 C 238.499 291.966,238.394 291.942,238.386 292.033 M311.053 293.300 L 310.333 294.600 311.158 293.600 C 311.889 292.713,312.214 292.000,311.886 292.000 C 311.824 292.000,311.449 292.585,311.053 293.300 M309.453 296.100 L 308.733 297.400 309.558 296.400 C 310.289 295.513,310.614 294.800,310.286 294.800 C 310.224 294.800,309.849 295.385,309.453 296.100 M307.786 298.900 L 307.152 300.200 307.967 299.200 C 308.752 298.237,309.008 297.600,308.610 297.600 C 308.506 297.600,308.135 298.185,307.786 298.900 M124.131 298.300 C 139.713 298.358,165.093 298.358,180.531 298.300 C 195.969 298.242,183.220 298.195,152.200 298.195 C 121.180 298.195,108.549 298.242,124.131 298.300 M59.501 299.312 C 58.677 299.811,57.690 300.665,57.309 301.209 C 56.754 302.002,56.945 301.923,58.262 300.817 C 59.168 300.057,60.515 299.215,61.255 298.948 C 62.159 298.620,62.338 298.452,61.800 298.432 C 61.360 298.417,60.325 298.812,59.501 299.312 M65.800 298.930 C 68.043 299.808,68.852 300.454,70.027 302.307 C 70.672 303.324,71.200 303.939,71.200 303.673 C 71.200 301.994,67.198 298.364,65.420 298.430 C 64.783 298.454,64.868 298.566,65.800 298.930 M92.793 299.355 C 89.428 301.661,87.639 306.344,89.187 308.792 C 89.431 309.179,89.480 308.599,89.328 307.127 C 88.945 303.410,91.045 300.125,94.600 298.883 C 95.483 298.574,95.587 298.455,94.993 298.432 C 94.549 298.414,93.559 298.830,92.793 299.355 M210.200 298.883 C 216.746 301.171,217.378 309.827,211.237 313.069 L 209.474 314.000 152.524 314.000 C 90.849 314.000,94.431 314.128,91.700 311.825 C 90.985 311.222,90.400 310.897,90.400 311.102 C 90.400 311.611,91.753 312.800,92.331 312.800 C 92.589 312.800,92.800 312.944,92.800 313.120 C 92.800 314.339,95.647 314.400,152.510 314.400 C 209.033 314.400,210.930 314.362,212.000 313.199 C 212.110 313.079,212.695 312.667,213.300 312.282 C 213.905 311.897,214.400 311.316,214.400 310.991 C 214.400 310.666,214.544 310.400,214.720 310.400 C 215.240 310.400,216.000 307.868,216.000 306.135 C 216.000 303.030,212.270 298.344,209.869 298.432 C 209.161 298.457,209.222 298.541,210.200 298.883 M306.186 301.700 L 305.552 303.000 306.367 302.000 C 307.152 301.037,307.408 300.400,307.010 300.400 C 306.906 300.400,306.535 300.985,306.186 301.700 M253.590 302.226 C 253.376 302.790,253.200 303.991,253.200 304.893 C 253.200 305.796,253.032 307.629,252.827 308.967 C 252.622 310.305,252.257 313.290,252.017 315.600 C 251.208 323.357,250.742 327.385,250.375 329.785 C 249.852 333.206,250.051 333.173,255.866 328.882 C 258.760 326.747,263.956 322.930,267.412 320.400 C 277.175 313.253,276.594 313.951,274.000 312.483 C 272.283 311.511,265.045 307.358,263.400 306.401 C 253.032 300.368,254.121 300.831,253.590 302.226 M55.993 303.418 C 55.189 305.534,55.111 306.520,55.622 308.136 C 57.277 313.363,62.756 315.958,67.088 313.565 C 68.923 312.551,69.987 311.600,69.286 311.600 C 69.019 311.600,68.800 311.758,68.800 311.951 C 68.800 312.546,64.936 314.000,63.352 314.000 C 58.574 314.000,54.778 308.858,56.162 304.261 C 56.757 302.284,56.642 301.711,55.993 303.418 M304.622 304.222 C 304.245 304.798,304.016 305.349,304.114 305.447 C 304.212 305.545,304.600 305.154,304.978 304.578 C 305.355 304.002,305.584 303.451,305.486 303.353 C 305.388 303.255,305.000 303.646,304.622 304.222 M71.293 306.400 C 71.293 307.170,71.375 307.485,71.476 307.100 C 71.576 306.715,71.576 306.085,71.476 305.700 C 71.375 305.315,71.293 305.630,71.293 306.400 M302.875 307.300 C 302.440 308.015,301.748 309.230,301.338 310.000 C 298.703 314.940,296.416 318.238,294.600 319.719 C 291.901 321.919,291.645 322.178,292.714 321.627 C 293.725 321.107,298.000 317.156,298.000 316.743 C 298.000 316.599,298.687 315.338,299.526 313.941 C 301.804 310.148,304.064 306.000,303.852 306.000 C 303.749 306.000,303.310 306.585,302.875 307.300 M70.316 309.913 L 69.632 311.400 70.416 310.456 C 70.847 309.936,71.200 309.261,71.200 308.956 C 71.200 308.133,71.070 308.273,70.316 309.913 M321.600 311.200 C 321.067 311.545,321.067 311.588,321.600 311.588 C 321.930 311.588,322.470 311.413,322.800 311.200 C 323.333 310.855,323.333 310.812,322.800 310.812 C 322.470 310.812,321.930 310.987,321.600 311.200 M318.498 312.635 C 317.781 313.200,316.988 314.053,316.736 314.531 C 316.402 315.162,316.594 315.070,317.438 314.195 C 318.077 313.532,319.050 312.687,319.600 312.316 C 320.150 311.945,320.420 311.635,320.200 311.625 C 319.980 311.616,319.214 312.071,318.498 312.635 M315.867 315.867 C 315.720 316.013,315.611 316.508,315.625 316.967 C 315.649 317.733,315.682 317.723,316.034 316.842 C 316.426 315.863,316.344 315.389,315.867 315.867 M289.985 323.218 L 288.600 324.435 290.095 323.518 C 290.917 323.013,291.592 322.465,291.595 322.300 C 291.603 321.837,291.469 321.913,289.985 323.218 M286.785 325.618 L 285.400 326.835 286.895 325.918 C 287.717 325.413,288.392 324.865,288.395 324.700 C 288.403 324.237,288.269 324.313,286.785 325.618 M278.000 332.064 C 274.150 334.920,270.505 337.553,269.900 337.915 C 269.295 338.277,268.800 338.736,268.800 338.935 C 268.800 339.135,269.025 339.121,269.300 338.903 C 269.575 338.686,271.330 337.389,273.200 336.021 C 275.070 334.653,277.050 333.200,277.600 332.792 C 281.733 329.726,284.288 327.881,284.797 327.595 C 285.125 327.411,285.305 327.172,285.197 327.066 C 285.089 326.959,281.850 329.208,278.000 332.064 M266.300 340.614 C 265.255 341.380,264.400 342.105,264.400 342.223 C 264.400 342.511,267.892 340.098,268.203 339.595 C 268.578 338.988,268.348 339.111,266.300 340.614 M161.307 343.235 C 156.892 346.363,156.364 353.705,160.376 356.185 C 160.625 356.339,160.253 355.648,159.549 354.649 C 156.237 349.950,158.395 344.051,163.976 342.546 C 165.770 342.062,165.777 342.054,164.400 342.045 C 163.477 342.039,162.423 342.444,161.307 343.235 M208.033 342.143 C 208.476 342.522,210.817 342.751,210.596 342.394 C 210.462 342.177,209.793 342.000,209.110 342.000 C 208.426 342.000,207.942 342.064,208.033 342.143 M262.197 343.651 C 259.777 345.455,259.546 345.886,261.800 344.394 C 264.249 342.773,264.171 342.837,263.964 342.631 C 263.871 342.537,263.076 342.997,262.197 343.651 M213.279 344.647 C 217.300 348.944,215.588 355.669,210.038 357.378 C 208.428 357.874,208.349 357.947,209.400 357.962 C 215.423 358.052,218.433 345.409,212.800 343.679 C 212.470 343.578,212.685 344.013,213.279 344.647 M232.225 348.106 C 232.073 349.524,232.129 351.044,232.353 351.606 C 232.662 352.382,232.755 351.832,232.775 349.100 C 232.804 344.982,232.599 344.611,232.225 348.106 M254.600 349.224 C 251.960 351.190,249.260 353.262,248.600 353.827 C 246.742 355.420,253.280 350.826,256.400 348.345 C 256.950 347.908,257.895 347.253,258.500 346.889 C 259.105 346.525,259.600 346.086,259.600 345.914 C 259.600 345.476,259.892 345.283,254.600 349.224 M232.801 353.011 C 232.798 353.947,235.693 357.198,236.531 357.200 C 236.713 357.200,236.282 356.713,235.574 356.117 C 234.867 355.521,233.953 354.486,233.545 353.817 C 233.137 353.148,232.802 352.785,232.801 353.011 M245.994 355.618 C 245.447 356.039,245.180 356.380,245.400 356.378 C 245.929 356.373,247.391 355.258,247.165 355.031 C 247.068 354.934,246.541 355.198,245.994 355.618 M162.000 357.189 C 162.550 357.625,163.450 357.972,164.000 357.960 C 164.600 357.946,164.760 357.849,164.400 357.716 C 164.070 357.595,163.170 357.248,162.400 356.946 L 161.000 356.395 162.000 357.189 M244.296 356.637 C 244.166 356.767,243.371 357.119,242.530 357.419 C 241.585 357.756,241.313 357.972,241.820 357.982 C 242.779 358.003,244.792 357.136,244.797 356.700 C 244.801 356.339,244.617 356.316,244.296 356.637 M237.400 357.600 C 237.536 357.820,238.042 357.987,238.524 357.972 C 239.369 357.945,239.371 357.931,238.600 357.600 C 237.499 357.127,237.108 357.127,237.400 357.600 " stroke="none" fill="#a0d2ee" fill-rule="evenodd"></path></g></svg>